<?xml version="1.0" encoding="utf-8"?>
<!-- Generator: Adobe Illustrator 18.1.1, SVG Export Plug-In . SVG Version: 6.00 Build 0)  -->
<!DOCTYPE svg PUBLIC "-//W3C//DTD SVG 1.1//EN" "http://www.w3.org/Graphics/SVG/1.1/DTD/svg11.dtd">
<svg version="1.1" id="Ebene_1" xmlns="http://www.w3.org/2000/svg" xmlns:xlink="http://www.w3.org/1999/xlink" x="0px" y="0px"
	 width="570px" height="203.9px" viewBox="0 0 570 203.9" enable-background="new 0 0 570 203.9" xml:space="preserve">
<g>
	<g>
		<g>
			<path fill="#9EA3A5" d="M144.7,171H11c-0.6,0-1.1-0.5-1.1-1.1v-15.3c0-0.6,0.5-1.1,1.1-1.1h133.7c0.6,0,1.1,0.5,1.1,1.1v15.3
				C145.8,170.5,145.3,171,144.7,171z M12.1,168.8h131.5v-13.2H12.1V168.8z"/>
		</g>
	</g>
	<g>
		<g>
			<path fill="#9EA3A5" d="M121.7,48.2v17.5h17.5V48.2H121.7z M132.6,54.8l-4.2,4.2l-2.4-2l-2.2,2.2v-8.8H137v8.8L132.6,54.8z"/>
		</g>
		<g>
			<circle fill="#9EA3A5" cx="127.7" cy="54.3" r="1.6"/>
		</g>
	</g>
	<g>
		<g>
			<path fill="#50B8E7" d="M38.4,114v26.3H12.1V114H38.4 M38.4,111.8H12.1c-1.2,0-2.2,1-2.2,2.2v26.3c0,1.2,1,2.2,2.2,2.2h26.3
				c1.2,0,2.2-1,2.2-2.2V114C40.6,112.8,39.6,111.8,38.4,111.8L38.4,111.8z"/>
		</g>
	</g>
	<g>
		<g>
			<path fill="#9EA3A5" d="M557.9,100.8h-57c-0.6,0-1.1-0.5-1.1-1.1V84.4c0-0.6,0.5-1.1,1.1-1.1h57c0.6,0,1.1,0.5,1.1,1.1v15.3
				C559,100.4,558.5,100.8,557.9,100.8z M502,98.7h54.8V85.5H502V98.7z"/>
		</g>
	</g>
	<g opacity="0.75">
		<g>
			<rect x="506.4" y="89.9" fill="#50B8E7" width="46" height="4.4"/>
		</g>
	</g>
	<g opacity="0.75">
		<g>
			<rect x="458.2" y="91" fill="#9EA3A5" width="30.7" height="4.4"/>
		</g>
	</g>
	<g opacity="0.75">
		<g>
			<rect x="458.2" y="125" fill="#9EA3A5" width="30.7" height="4.4"/>
		</g>
	</g>
	<g>
		<g>
			<path fill="#9EA3A5" d="M557.9,135.9h-57c-0.6,0-1.1-0.5-1.1-1.1v-15.3c0-0.6,0.5-1.1,1.1-1.1h57c0.6,0,1.1,0.5,1.1,1.1v15.3
				C559,135.4,558.5,135.9,557.9,135.9z M502,133.7h54.8v-13.2H502V133.7z"/>
		</g>
	</g>
	<g>
		<g>
			<g opacity="0.5">
				<g>
					<rect x="16.4" y="158.9" fill="#50B8E7" width="6.6" height="6.6"/>
				</g>
			</g>
			<g opacity="0.75">
				<g>
					<rect x="27.4" y="160" fill="#50B8E7" width="49.3" height="4.4"/>
				</g>
			</g>
			<g opacity="0.75">
				<g>
					<rect x="29.6" y="179.8" fill="#9EA3A5" width="17.5" height="4.4"/>
				</g>
			</g>
		</g>
	</g>
	<g>
		<g opacity="0.5">
			<g>
				<path fill="#9EA3A5" d="M349.7,36.2c3.6,0,6.6,2.9,6.6,6.6v129.3c0,3.6-2.9,6.6-6.6,6.6H220.3c-3.6,0-6.6-2.9-6.6-6.6V42.8
					c0-3.6,2.9-6.6,6.6-6.6H349.7 M349.7,34H220.3c-4.8,0-8.8,3.9-8.8,8.8v129.3c0,4.8,3.9,8.8,8.8,8.8h129.3c4.8,0,8.8-3.9,8.8-8.8
					V42.8C358.4,37.9,354.5,34,349.7,34L349.7,34z"/>
			</g>
		</g>
		<g>
			<path fill="#9EA3A5" d="M349.7,179.8H220.3c-4.2,0-7.7-3.4-7.7-7.7V42.8c0-4.2,3.4-7.7,7.7-7.7h129.3c4.2,0,7.7,3.4,7.7,7.7
				v129.3C357.3,176.3,353.9,179.8,349.7,179.8z M220.3,37.3c-3,0-5.5,2.5-5.5,5.5v129.3c0,3,2.5,5.5,5.5,5.5h129.3
				c3,0,5.5-2.5,5.5-5.5V42.8c0-3-2.5-5.5-5.5-5.5H220.3z"/>
		</g>
		<g>
			<rect x="356.2" y="106.3" fill="#9EA3A5" width="36.2" height="2.2"/>
		</g>
		<g>
			<rect x="177.6" y="106.3" fill="#9EA3A5" width="36.2" height="2.2"/>
		</g>
	</g>
	<g>
		<g>
			<path fill="#9EA3A5" d="M29.6,118.4h-8.8c-2.4,0-4.4,2-4.4,4.4v8.8c0,2.4,2,4.4,4.4,4.4h8.8c2.4,0,4.4-2,4.4-4.4v-8.8
				C34,120.3,32,118.4,29.6,118.4z M31.8,131.5c0,1.2-1,2.2-2.2,2.2h-8.8c-1.2,0-2.2-1-2.2-2.2v-8.8c0-1.2,1-2.2,2.2-2.2h8.8
				c1.2,0,2.2,1,2.2,2.2V131.5z"/>
		</g>
		<g>
			<path fill="#9EA3A5" d="M25.2,122.8c-2.4,0-4.4,2-4.4,4.4c0,2.4,2,4.4,4.4,4.4c2.4,0,4.4-2,4.4-4.4
				C29.6,124.7,27.6,122.8,25.2,122.8z M25.2,130.4c-1.8,0-3.3-1.5-3.3-3.3s1.5-3.3,3.3-3.3c1.8,0,3.3,1.5,3.3,3.3
				S27,130.4,25.2,130.4z"/>
		</g>
	</g>
	<g>
		<g>
			<path fill="#9EA3A5" d="M101.9,83.3H88.8c-1.2,0-2.2,1-2.2,2.2v9.9c0,1.2,1,2.2,2.2,2.2h1.1v3.3l5.5-3.3h6.6c1.2,0,2.2-1,2.2-2.2
				v-9.9C104.1,84.3,103.2,83.3,101.9,83.3z M101.9,95.4h-6.6h-0.6l-0.5,0.3L92.1,97v-1.6h-2.2h-1.1v-9.9h13.2V95.4z"/>
		</g>
		<g>
			<rect x="91" y="91" fill="#9EA3A5" width="6.6" height="2.2"/>
		</g>
		<g>
			<rect x="91" y="87.7" fill="#9EA3A5" width="8.8" height="2.2"/>
		</g>
	</g>
	<g>
		<g>
			<rect x="16.4" y="97.6" fill="#9EA3A5" width="8.8" height="2.2"/>
		</g>
	</g>
	<g>
		<g>
			<rect x="16.4" y="93.2" fill="#9EA3A5" width="17.5" height="2.2"/>
		</g>
	</g>
	<g>
		<g>
			<rect x="16.4" y="84.4" fill="#9EA3A5" width="17.5" height="2.2"/>
		</g>
	</g>
	<g>
		<g>
			<rect x="16.4" y="88.8" fill="#9EA3A5" width="17.5" height="2.2"/>
		</g>
	</g>
	<g>
		<g>
			<path fill="#9EA3A5" d="M137,85.5v13.2h-13.2V85.5H137 M139.2,83.3h-17.5v17.5h17.5V83.3L139.2,83.3z"/>
		</g>
	</g>
	<g>
		<g>
			<path fill="#9EA3A5" d="M134.8,96.5h-8.8v-1.1c0-1.2,1-2.2,2.2-2.2h4.4c1.2,0,2.2,1,2.2,2.2V96.5z"/>
		</g>
	</g>
	<g>
		<g>
			<path fill="#9EA3A5" d="M132.6,89.9c0,1.2-1,3.3-2.2,3.3c-1.2,0-2.2-2.1-2.2-3.3s1-2.2,2.2-2.2C131.7,87.7,132.6,88.7,132.6,89.9
				z"/>
		</g>
	</g>
	<g>
		<g>
			<g>
				<g>
					<path fill="#9EA3A5" d="M60.3,48.2c-4.8,0-8.8,3.9-8.8,8.8s3.9,8.8,8.8,8.8s8.8-3.9,8.8-8.8S65.1,48.2,60.3,48.2z M65.8,58.1
						h-4.4v4.4h-2.2v-4.4h-4.4v-2.2h4.4v-4.4h2.2v4.4h4.4V58.1z"/>
				</g>
			</g>
		</g>
	</g>
	<g>
		<path fill="#9EA3A5" d="M57,122.8v9.3c-0.6-0.4-1.3-0.6-2.2-0.6c-1.8,0-3.3,1-3.3,2.2s1.5,2.2,3.3,2.2s3.3-1,3.3-2.2v-7l9.9-3.6
			v5.7c-0.6-0.4-1.3-0.6-2.2-0.6c-1.8,0-3.3,1-3.3,2.2s1.5,2.2,3.3,2.2c1.8,0,3.3-1,3.3-2.2v-12.1L57,122.8z"/>
	</g>
	<g>
		<g>
			<path fill="#9EA3A5" d="M104.1,126.8c-0.1,1.4-0.5,2.6-1.4,3.6c-0.9,1-2.1,1.5-3.8,1.5c-0.6,0-1-0.1-1.5-0.4
				c-0.4-0.3-0.7-0.7-0.9-1.2c-0.3,0.5-0.6,0.9-1.1,1.2c-0.4,0.3-0.9,0.4-1.5,0.4c-1,0-1.8-0.4-2.4-1.1c-0.5-0.7-0.7-1.7-0.6-3
				c0.2-1.6,0.7-2.8,1.5-3.8c0.8-0.9,1.8-1.4,3-1.4c0.8,0,1.5,0.1,2,0.2s1.1,0.4,1.7,0.8l0,0h0.1l-0.5,5.3c0,0.5,0,0.9,0.1,1.1
				c0.1,0.2,0.3,0.3,0.5,0.3c0.8,0,1.4-0.3,1.9-1c0.5-0.7,0.7-1.5,0.8-2.6c0.1-2.1-0.3-3.8-1.4-5c-1-1.2-2.6-1.8-4.8-1.8
				c-2.1,0-3.8,0.6-5,1.9c-1.2,1.3-1.9,3-2,5.2c-0.1,2.2,0.4,3.9,1.5,5.1c1.1,1.2,2.7,1.9,4.8,1.9c0.6,0,1.2-0.1,1.8-0.2
				c0.6-0.1,1.2-0.3,1.6-0.4l0.4,1.6c-0.5,0.3-1.1,0.5-1.8,0.6c-0.7,0.1-1.4,0.2-2.1,0.2c-2.8,0-5-0.8-6.5-2.3s-2.2-3.7-2.1-6.4
				c0.1-2.7,1-4.8,2.7-6.4c1.7-1.6,3.9-2.4,6.6-2.4c2.7,0,4.8,0.7,6.2,2.2C103.6,122.1,104.2,124.2,104.1,126.8z M93.6,127.7
				c-0.1,0.8,0,1.3,0.2,1.7c0.2,0.4,0.5,0.6,0.9,0.6c0.4,0,0.7-0.1,1-0.3c0.3-0.2,0.6-0.5,0.8-1l0.4-4.3c-0.2,0-0.3-0.1-0.4-0.1
				c-0.1,0-0.3,0-0.4,0c-0.7,0-1.3,0.3-1.6,0.9C94,125.8,93.7,126.6,93.6,127.7z"/>
		</g>
	</g>
	<g>
		<path fill="#9EA3A5" d="M138.9,126.4l-2.2-2.2c-0.2-0.2-0.5-0.3-0.8-0.3h-2.8l1-2.5c0.3-0.7,0.2-1.4-0.2-2c-0.4-0.6-1.1-1-1.8-1
			h-1.7c-0.4,0-0.8,0.2-1,0.6l-2.6,5.2c-0.2-0.2-0.5-0.3-0.8-0.3h-3.3c-0.6,0-1.1,0.5-1.1,1.1v9.9c0,0.6,0.5,1.1,1.1,1.1h3.3
			c0.6,0,1-0.4,1.1-1l1.7,0.9c0.2,0.1,0.3,0.1,0.5,0.1h6.6c0.3,0,0.6-0.1,0.8-0.3l1.1-1.1c0.2-0.2,0.3-0.4,0.3-0.6l1.1-6.6
			C139.3,127,139.1,126.6,138.9,126.4z M136,133.2l-0.5,0.5h-5.9l-1.4-0.7v-6.7l2.9-5.7h1l-1.6,4c-0.1,0.3-0.1,0.7,0.1,1
			c0.2,0.3,0.5,0.5,0.9,0.5h3.9l1.5,1.5L136,133.2z"/>
	</g>
	<g>
		<path fill="#9EA3A5" d="M67.2,92.3l-6.4-1.1l0-6.2c0-0.2,0-0.5-0.1-0.7c-0.4-1.2-1.7-1.8-2.9-1.4c-1.2,0.4-1.8,1.7-1.4,2.9l2,5.9
			l-5.7,3.3c-0.2,0.1-0.4,0.3-0.5,0.4c-0.8,0.9-0.8,2.4,0.1,3.2c0.9,0.9,2.4,0.8,3.2-0.1l4.5-4.9l5.8,3c0.2,0.1,0.4,0.2,0.7,0.2
			c1.2,0.2,2.4-0.6,2.6-1.9C69.2,93.7,68.4,92.5,67.2,92.3z"/>
	</g>
	<g>
		<g>
			<path fill="#9EA3A5" d="M100.8,51.6l-1.6,1.6c1,1,1.6,2.4,1.6,3.9c0,3-2.5,5.5-5.5,5.5v-2.2l-3.3,3.3l3.3,3.3v-2.2
				c4.2,0,7.7-3.4,7.7-7.7C103,55,102.2,53,100.8,51.6z"/>
		</g>
		<g>
			<path fill="#9EA3A5" d="M95.4,51.5v2.2l3.3-3.3l-3.3-3.3v2.2c-4.2,0-7.7,3.4-7.7,7.7c0,2,0.8,4,2.2,5.4l1.6-1.6
				c-1-1-1.6-2.4-1.6-3.9C89.9,54,92.3,51.5,95.4,51.5z"/>
		</g>
	</g>
	<g>
		<g>
			<rect x="20.8" y="59.2" fill="#9EA3A5" width="8.8" height="2.2"/>
		</g>
		<g>
			<rect x="20.8" y="54.8" fill="#9EA3A5" width="8.8" height="2.2"/>
		</g>
		<g>
			<path fill="#9EA3A5" d="M34,48.2H16.4v17.5H34V48.2z M20.8,50.4h1.1v1.1h-1.1V50.4z M18.6,50.4h1.1v1.1h-1.1V50.4z M31.8,63.6
				H18.6v-11h13.2V63.6z M31.8,51.5H23v-1.1h8.8V51.5z"/>
		</g>
	</g>
	<g>
		<g>
			<path fill="#9EA3A5" d="M447.2,65.8h-17.5V48.2h17.5V65.8z M433,62.5h11v-11h-11V62.5z"/>
		</g>
	</g>
	<g>
		<g>
			<path fill="#9EA3A5" d="M495.5,65.8h-8.8c-2.4,0-4.4-2-4.4-4.4v-8.8c0-2.4,2-4.4,4.4-4.4h13.2v13.2
				C499.8,63.8,497.9,65.8,495.5,65.8z M486.7,62.5h8.8c0.6,0,1.1-0.5,1.1-1.1v-9.9h-9.9c-0.6,0-1.1,0.5-1.1,1.1v8.8
				C485.6,62,486.1,62.5,486.7,62.5z"/>
		</g>
	</g>
	<g>
		<g>
			<path fill="#50B8E7" d="M556.8,43.8v26.3h-26.3V43.8H556.8 M556.8,41.7h-26.3c-1.2,0-2.2,1-2.2,2.2v26.3c0,1.2,1,2.2,2.2,2.2
				h26.3c1.2,0,2.2-1,2.2-2.2V43.8C559,42.6,558.1,41.7,556.8,41.7L556.8,41.7z"/>
		</g>
	</g>
	<g>
		<g>
			<path fill="#9EA3A5" d="M548.1,65.8h-8.8c-2.4,0-4.4-2-4.4-4.4v-8.8c0-2.4,2-4.4,4.4-4.4h8.8c2.4,0,4.4,2,4.4,4.4v8.8
				C552.5,63.8,550.5,65.8,548.1,65.8z M539.3,62.5h8.8c0.6,0,1.1-0.5,1.1-1.1v-8.8c0-0.6-0.5-1.1-1.1-1.1h-8.8
				c-0.6,0-1.1,0.5-1.1,1.1v8.8C538.2,62,538.7,62.5,539.3,62.5z"/>
		</g>
	</g>
	<g>
		<rect x="436.3" y="54.8" fill="#9EA3A5" width="4.4" height="4.4"/>
	</g>
	<g>
		<path fill="#9EA3A5" d="M492.2,59.2H490c-0.6,0-1.1-0.5-1.1-1.1v-2.2c0-0.6,0.5-1.1,1.1-1.1h2.2c0.6,0,1.1,0.5,1.1,1.1v2.2
			C493.3,58.7,492.8,59.2,492.2,59.2z"/>
	</g>
	<g>
		<path fill="#9EA3A5" d="M544.8,59.2h-2.2c-0.6,0-1.1-0.5-1.1-1.1v-2.2c0-0.6,0.5-1.1,1.1-1.1h2.2c0.6,0,1.1,0.5,1.1,1.1v2.2
			C545.9,58.7,545.4,59.2,544.8,59.2z"/>
	</g>
	<path fill="#9EA3A5" d="M26,179.4l-1.6-1.6l-0.7,0.7c-0.4-0.6-1.1-1-1.8-1h-4.4c-1.2,0-2.2,1-2.2,2.2v4.4c0,1.2,1,2.2,2.2,2.2h4.4
		c1.2,0,2.2-1,2.2-2.2v-2.8L26,179.4z M23,184.2c0,0.6-0.5,1.1-1.1,1.1h-4.4c-0.6,0-1.1-0.5-1.1-1.1v-4.4c0-0.6,0.5-1.1,1.1-1.1h4.4
		c0.5,0,0.9,0.3,1,0.7l-2.1,2.1l-1.4-1.4l-1.6,1.6l3,3l2.2-2.2V184.2z"/>
	<g opacity="0.75">
		<g>
			<rect x="72.3" y="179.8" fill="#9EA3A5" width="17.5" height="4.4"/>
		</g>
	</g>
	<g>
		<g>
			<path fill="#9EA3A5" d="M64.7,178.7c0.6,0,1.1,0.5,1.1,1.1v4.4c0,0.6-0.5,1.1-1.1,1.1h-4.4c-0.6,0-1.1-0.5-1.1-1.1v-4.4
				c0-0.6,0.5-1.1,1.1-1.1H64.7 M64.7,177.6h-4.4c-1.2,0-2.2,1-2.2,2.2v4.4c0,1.2,1,2.2,2.2,2.2h4.4c1.2,0,2.2-1,2.2-2.2v-4.4
				C66.9,178.6,65.9,177.6,64.7,177.6L64.7,177.6z"/>
		</g>
	</g>
	<g>
		<path fill="#9EA3A5" d="M437,85.5c-2.2,0-4.2,0.5-5.8,1.4c-0.9,0.5-1.5,1.4-1.5,2.5v0c0,1.1,0.6,2.1,1.6,2.5l1.9,0.9
			c0.5,0.3,0.9,0.8,0.9,1.4v0.3c0,0.8-0.7,1.5-1.6,1.5c-1.1,0-2,0.9-2,2v0c0,0.7,0.4,1.4,1.1,1.7c1.6,0.8,3.5,1.2,5.5,1.2
			c5.7,0,10.2-3.4,10.2-7.7C447.2,88.9,442.7,85.5,437,85.5z M434.1,98.7c-0.6,0-1.1-0.5-1.1-1.1c0-0.6,0.5-1.1,1.1-1.1
			c0.6,0,1.1,0.5,1.1,1.1C435.2,98.2,434.7,98.7,434.1,98.7z M433.5,91c-0.9,0-1.6-0.7-1.6-1.6s0.7-1.6,1.6-1.6s1.6,0.7,1.6,1.6
			S434.4,91,433.5,91z M436.3,88.2c0-0.9,0.7-1.6,1.6-1.6s1.6,0.7,1.6,1.6c0,0.9-0.7,1.6-1.6,1.6S436.3,89.1,436.3,88.2z M439,98.7
			c-0.9,0-1.6-0.7-1.6-1.6c0-0.9,0.7-1.6,1.6-1.6s1.6,0.7,1.6,1.6C440.7,97.9,439.9,98.7,439,98.7z M440.7,90.4
			c0-0.9,0.7-1.6,1.6-1.6c0.9,0,1.6,0.7,1.6,1.6s-0.7,1.6-1.6,1.6C441.4,92.1,440.7,91.3,440.7,90.4z M443.4,96.5
			c-0.9,0-1.6-0.7-1.6-1.6s0.7-1.6,1.6-1.6s1.6,0.7,1.6,1.6S444.3,96.5,443.4,96.5z"/>
	</g>
	<g opacity="0.75">
		<g>
			<rect x="506.4" y="125" fill="#FD9838" width="46" height="4.4"/>
		</g>
	</g>
	<g>
		<g>
			<path fill="#9EA3A5" d="M429.7,153.5V171h17.5v-17.5H429.7z M440.7,160l-4.2,4.2l-2.4-2l-2.2,2.2v-8.8H445v8.8L440.7,160z"/>
		</g>
		<g>
			<circle fill="#9EA3A5" cx="435.7" cy="159.5" r="1.6"/>
		</g>
	</g>
	<g>
		<g>
			<path fill="#9EA3A5" d="M557.9,171h-98.7c-0.6,0-1.1-0.5-1.1-1.1v-15.3c0-0.6,0.5-1.1,1.1-1.1h98.7c0.6,0,1.1,0.5,1.1,1.1v15.3
				C559,170.5,558.5,171,557.9,171z M460.4,168.8h96.5v-13.2h-96.5V168.8z"/>
		</g>
	</g>
	<g opacity="0.75">
		<g>
			<rect x="475.7" y="160" fill="#9EA3A5" width="52.6" height="4.4"/>
		</g>
	</g>
	<g opacity="0.5">
		<g>
			<rect x="464.8" y="158.9" fill="#9EA3A5" width="6.6" height="6.6"/>
		</g>
	</g>
	<g>
		<rect x="100.8" y="12.1" fill="#50B8E7" width="57" height="2.2"/>
	</g>
	<g>
		<rect x="0" y="201.7" fill="#50B8E7" width="157.8" height="2.2"/>
	</g>
	<g>
		<rect x="412.2" y="201.7" fill="#50B8E7" width="157.8" height="2.2"/>
	</g>
	<g>
		<rect y="12.1" fill="#50B8E7" width="57" height="2.2"/>
	</g>
	<circle fill="#FFFFFF" cx="78.9" cy="13.2" r="12.1"/>
	<g opacity="0.25">
		<g>
			<path fill="#50B8E7" d="M78.9,3.3c5.4,0,9.9,4.4,9.9,9.9S84.4,23,78.9,23c-5.4,0-9.9-4.4-9.9-9.9S73.5,3.3,78.9,3.3 M78.9,1.1
				c-6.7,0-12.1,5.4-12.1,12.1s5.4,12.1,12.1,12.1c6.7,0,12.1-5.4,12.1-12.1S85.6,1.1,78.9,1.1L78.9,1.1z"/>
		</g>
	</g>
	<path fill="#50B8E7" d="M78.9,0c-7.3,0-13.2,5.9-13.2,13.2s5.9,13.2,13.2,13.2c7.3,0,13.2-5.9,13.2-13.2S86.2,0,78.9,0z M86.2,17.2
		c0.2-1.3,0.4-2.6,0.4-4s-0.1-2.8-0.4-4c2.2,1,3.6,2.5,3.6,4S88.5,16.2,86.2,17.2z M68,13.2c0-1.6,1.4-3,3.6-4
		c-0.2,1.3-0.4,2.6-0.4,4s0.1,2.8,0.4,4C69.4,16.2,68,14.7,68,13.2z M73.4,13.2c0-1.7,0.2-3.4,0.6-4.9c1.2-0.3,2.4-0.5,3.8-0.6v10.9
		c-1.3-0.1-2.6-0.3-3.8-0.6C73.7,16.6,73.4,14.9,73.4,13.2z M83,5.8C82,5.7,81,5.6,80,5.5V2.4C81.2,2.9,82.2,4.1,83,5.8z M77.8,2.4
		v3.1c-1,0-2,0.2-2.9,0.3C75.7,4.1,76.7,2.9,77.8,2.4z M77.8,20.8v3.1c-1.1-0.5-2.2-1.7-2.9-3.4C75.8,20.6,76.8,20.7,77.8,20.8z
		 M80,23.9v-3.1c1,0,2-0.2,2.9-0.3C82.2,22.2,81.2,23.4,80,23.9z M80,18.6V7.7c1.3,0.1,2.6,0.3,3.8,0.6c0.4,1.5,0.6,3.1,0.6,4.9
		s-0.2,3.4-0.6,4.9C82.6,18.3,81.4,18.5,80,18.6z M88.5,7.9c-0.9-0.5-1.9-1-3-1.4c-0.4-1.1-0.8-2.1-1.4-3C86,4.6,87.5,6.1,88.5,7.9z
		 M73.6,3.6c-0.5,0.9-1,1.9-1.4,3c-1.1,0.4-2.1,0.8-3,1.4C70.3,6.1,71.8,4.6,73.6,3.6z M69.3,18.4c0.9,0.5,1.9,1,3,1.4
		c0.4,1.1,0.8,2.1,1.4,3C71.8,21.7,70.3,20.3,69.3,18.4z M84.2,22.8c0.5-0.9,1-1.9,1.4-3c1.1-0.4,2.1-0.8,3-1.4
		C87.5,20.3,86,21.7,84.2,22.8z"/>
	<g>
		<path fill="#50B8E7" d="M91,14.2H66.9c-0.6,0-1.1-0.5-1.1-1.1s0.5-1.1,1.1-1.1H91c0.6,0,1.1,0.5,1.1,1.1S91.6,14.2,91,14.2z"/>
	</g>
	<g>
		<rect x="508.6" y="12.1" fill="#50B8E7" width="61.4" height="2.2"/>
	</g>
	<g>
		<rect x="412.2" y="12.1" fill="#50B8E7" width="61.4" height="2.2"/>
	</g>
	<g>
		<g>
			<path fill="#FFFFFF" d="M494.4,7.1c-1.1-1.5-1.1-4-1.1-5.5c-5.5,0-8.8,5.8-8.8,9.9c0,5.4,2.2,7.7,6.6,7.7c4.4,0,6.6-2.2,6.6-5.5
				S495.4,8.7,494.4,7.1z"/>
		</g>
		<g opacity="0.5">
			<g>
				<path fill="#50B8E7" d="M497.7,13.7c0-3.3-2.2-5-3.3-6.6c-1.1-1.5-1.1-4-1.1-5.5c-1.5,0-2.8,0.4-3.9,1.1c0.2,0,0.4,0,0.6,0
					c0,1.5,0,3.9,1.1,5.5c1.1,1.6,3.3,3.3,3.3,6.6c0,1.9-0.7,3.3-2.1,4.3C495.8,18.7,497.7,16.7,497.7,13.7z"/>
			</g>
		</g>
		<g opacity="0.5">
			<g>
				<polygon fill="#50B8E7" points="494.4,25.8 491.1,25.8 491.1,19.2 493.3,19.2 				"/>
			</g>
		</g>
		<path fill="#50B8E7" d="M494.4,0.5h-1.1c-6.1,0-9.9,6.4-9.9,11c0,4.3,1.4,7,4.2,8.2l-0.9,7.2h8.8l-0.9-7.1c2.7-0.9,4.2-3,4.2-6
			c0-3-1.6-4.8-2.7-6.2c-0.3-0.4-0.6-0.7-0.8-1c-0.9-1.3-0.9-3.8-0.9-4.9V0.5z M492.4,20.3l0.5,4.4h-3.8l0.5-4.4H492.4z M492.2,2.8
			c0.1,1.8,0.3,3.6,1.3,4.9c0.3,0.4,0.6,0.8,0.9,1.2c1.1,1.3,2.2,2.6,2.2,4.8c0,3.6-3,4.4-5.5,4.4c-3.9,0-5.5-1.9-5.5-6.6
			C485.6,8.2,488.1,3.5,492.2,2.8z"/>
		<g opacity="0.25">
			<path fill="#50B8E7" d="M494.4,14.8c0-3.3-2.2-5-3.3-6.6c-1.1-1.5-1.1-4-1.1-5.5c-0.2,0-0.4,0-0.6,0c-3.1,1.9-4.8,5.8-4.8,8.7
				c0,5.4,2.2,7.7,6.6,7.7c0.4,0,0.8,0,1.2-0.1C493.6,18.1,494.4,16.7,494.4,14.8z"/>
		</g>
	</g>
	<g>
		<g>
			<g>
				<path fill="#9EA3A5" d="M400.1,100.8c3.6,0,6.6,2.9,6.6,6.6c0,3.6-2.9,6.6-6.6,6.6c-3.6,0-6.6-2.9-6.6-6.6
					C393.5,103.8,396.5,100.8,400.1,100.8 M400.1,98.7c-4.8,0-8.8,3.9-8.8,8.8c0,4.8,3.9,8.8,8.8,8.8c4.8,0,8.8-3.9,8.8-8.8
					C408.9,102.6,404.9,98.7,400.1,98.7L400.1,98.7z"/>
			</g>
		</g>
	</g>
	<g>
		<circle fill="#50B8E7" cx="400.1" cy="107.4" r="4.4"/>
	</g>
	<g>
		<g>
			<g>
				<path fill="#50B8E7" d="M252.1,75.6h-4.4c-0.6,0-1.1-0.5-1.1-1.1v-4.4c0-0.6,0.5-1.1,1.1-1.1h4.4c0.6,0,1.1,0.5,1.1,1.1v4.4
					C253.2,75.1,252.7,75.6,252.1,75.6z"/>
			</g>
			<g>
				<path fill="#50B8E7" d="M252.1,145.8h-4.4c-0.6,0-1.1-0.5-1.1-1.1v-4.4c0-0.6,0.5-1.1,1.1-1.1h4.4c0.6,0,1.1,0.5,1.1,1.1v4.4
					C253.2,145.3,252.7,145.8,252.1,145.8z"/>
			</g>
			<g>
				<polygon fill="#FD9838" points="287.2,70.2 287.2,65.8 287.2,61.4 278.4,61.4 278.4,65.8 282.8,65.8 282.8,78.9 287.2,78.9 
					287.2,74.5 296,74.5 296,70.2 				"/>
				<polygon fill="#FD9838" points="309.1,105.2 317.9,105.2 317.9,100.8 309.1,100.8 304.7,100.8 300.3,100.8 300.3,105.2 
					304.7,105.2 304.7,114 309.1,114 				"/>
				<polygon fill="#FD9838" points="317.9,109.6 313.5,109.6 313.5,114 322.3,114 322.3,109.6 326.7,109.6 326.7,118.4 331,118.4 
					331,105.2 317.9,105.2 				"/>
				<polygon fill="#FD9838" points="322.3,87.7 309.1,87.7 309.1,92.1 304.7,92.1 304.7,96.5 313.5,96.5 313.5,92.1 317.9,92.1 
					317.9,96.5 322.3,96.5 322.3,100.8 331,100.8 331,96.5 326.7,96.5 326.7,92.1 322.3,92.1 				"/>
				<rect x="300.3" y="83.3" fill="#FD9838" width="4.4" height="8.8"/>
				<polygon fill="#FD9838" points="274,87.7 278.4,87.7 278.4,92.1 282.8,92.1 282.8,83.3 274,83.3 274,74.5 278.4,74.5 
					278.4,70.2 265.3,70.2 265.3,74.5 269.7,74.5 269.7,78.9 265.3,78.9 265.3,83.3 269.7,83.3 269.7,87.7 260.9,87.7 260.9,92.1 
					274,92.1 				"/>
				<rect x="239" y="87.7" fill="#FD9838" width="8.8" height="4.4"/>
				<rect x="247.7" y="92.1" fill="#FD9838" width="4.4" height="4.4"/>
				<rect x="326.7" y="149.1" fill="#FD9838" width="4.4" height="4.4"/>
				<rect x="274" y="149.1" fill="#FD9838" width="13.2" height="4.4"/>
				<rect x="265.3" y="149.1" fill="#FD9838" width="4.4" height="4.4"/>
				<rect x="265.3" y="127.2" fill="#FD9838" width="4.4" height="8.8"/>
				<polygon fill="#FD9838" points="269.7,140.3 265.3,140.3 265.3,144.7 269.7,144.7 269.7,149.1 274,149.1 274,135.9 269.7,135.9 
									"/>
				<rect x="326.7" y="87.7" fill="#FD9838" width="4.4" height="4.4"/>
				<rect x="313.5" y="127.2" fill="#FD9838" width="4.4" height="4.4"/>
				<path fill="#FD9838" d="M304.7,118.4V114h-4.4v8.8h4.4v4.4h-4.4v4.4H296v4.4h-4.4v4.4h-8.8v-4.4h4.4v-4.4h4.4v-4.4h4.4v-4.4
					h-8.8v4.4h-4.4v4.4H274v4.4h4.4v8.8h13.2v4.4h4.4v4.4h13.2v-4.4h4.4v-4.4h-8.8v4.4h-4.4v-4.4H296v-4.4h4.4v-4.4h4.4v4.4h17.5
					v4.4h-4.4v4.4h8.8v-4.4h4.4v-4.4h-4.4v-13.2h4.4v-4.4h-4.4v-4.4H304.7z M322.3,135.9h-13.2v-13.2h13.2V135.9z"/>
				<rect x="260.9" y="109.6" fill="#FD9838" width="4.4" height="8.8"/>
				<rect x="265.3" y="105.2" fill="#FD9838" width="4.4" height="4.4"/>
				<rect x="265.3" y="118.4" fill="#FD9838" width="4.4" height="4.4"/>
				<rect x="274" y="122.8" fill="#FD9838" width="4.4" height="4.4"/>
				<polygon fill="#FD9838" points="256.5,122.8 256.5,118.4 252.1,118.4 252.1,122.8 252.1,127.2 265.3,127.2 265.3,122.8 				"/>
				<polygon fill="#FD9838" points="247.7,127.2 247.7,122.8 243.3,122.8 243.3,114 239,114 239,127.2 				"/>
				<polygon fill="#FD9838" points="243.3,100.8 239,100.8 239,109.6 243.3,109.6 243.3,105.2 247.7,105.2 247.7,96.5 243.3,96.5 
									"/>
				<polygon fill="#FD9838" points="256.5,114 256.5,100.8 260.9,100.8 260.9,105.2 265.3,105.2 265.3,100.8 269.7,100.8 
					269.7,96.5 265.3,96.5 260.9,96.5 260.9,92.1 256.5,92.1 256.5,96.5 252.1,96.5 252.1,109.6 247.7,109.6 247.7,118.4 
					252.1,118.4 252.1,114 				"/>
				<polygon fill="#FD9838" points="300.3,70.2 304.7,70.2 304.7,61.4 291.6,61.4 291.6,65.8 300.3,65.8 				"/>
				<polygon fill="#FD9838" points="304.7,78.9 304.7,74.5 296,74.5 296,78.9 291.6,78.9 291.6,83.3 287.2,83.3 287.2,92.1 
					291.6,92.1 291.6,87.7 296,87.7 296,83.3 300.3,83.3 300.3,78.9 				"/>
				<rect x="265.3" y="61.4" fill="#FD9838" width="8.8" height="4.4"/>
				<path fill="#FD9838" d="M245.5,83.3h8.8c3.6,0,6.6-2.9,6.6-6.6V68c0-3.6-2.9-6.6-6.6-6.6h-8.8c-3.6,0-6.6,2.9-6.6,6.6v8.8
					C239,80.4,241.9,83.3,245.5,83.3z M243.3,68c0-1.2,1-2.2,2.2-2.2h8.8c1.2,0,2.2,1,2.2,2.2v8.8c0,1.2-1,2.2-2.2,2.2h-8.8
					c-1.2,0-2.2-1-2.2-2.2V68z"/>
				<path fill="#FD9838" d="M254.3,131.5h-8.8c-3.6,0-6.6,2.9-6.6,6.6v8.8c0,3.6,2.9,6.6,6.6,6.6h8.8c3.6,0,6.6-2.9,6.6-6.6v-8.8
					C260.9,134.5,257.9,131.5,254.3,131.5z M256.5,146.9c0,1.2-1,2.2-2.2,2.2h-8.8c-1.2,0-2.2-1-2.2-2.2v-8.8c0-1.2,1-2.2,2.2-2.2
					h8.8c1.2,0,2.2,1,2.2,2.2V146.9z"/>
				<path fill="#FD9838" d="M324.5,61.4h-8.8c-3.6,0-6.6,2.9-6.6,6.6v8.8c0,3.6,2.9,6.6,6.6,6.6h8.8c3.6,0,6.6-2.9,6.6-6.6V68
					C331,64.3,328.1,61.4,324.5,61.4z M326.7,76.7c0,1.2-1,2.2-2.2,2.2h-8.8c-1.2,0-2.2-1-2.2-2.2V68c0-1.2,1-2.2,2.2-2.2h8.8
					c1.2,0,2.2,1,2.2,2.2V76.7z"/>
			</g>
			<g>
				<path fill="#50B8E7" d="M322.3,75.6h-4.4c-0.6,0-1.1-0.5-1.1-1.1v-4.4c0-0.6,0.5-1.1,1.1-1.1h4.4c0.6,0,1.1,0.5,1.1,1.1v4.4
					C323.4,75.1,322.9,75.6,322.3,75.6z"/>
			</g>
		</g>
	</g>
	<g>
		<g opacity="0.5">
			<g>
				<polygon fill="#50B8E7" points="291.6,109.6 289.4,107.4 287.2,109.6 296,118.4 296,118.4 296,109.6 293.8,107.4 				"/>
			</g>
		</g>
		<g opacity="0.25">
			<g>
				<polygon fill="#50B8E7" points="285,114 281.7,110.7 274,118.4 296,118.4 288.3,110.7 				"/>
			</g>
		</g>
		<path fill="#50B8E7" d="M296,95.4H274c-0.6,0-1.1,0.5-1.1,1.1v21.9c0,0.6,0.5,1.1,1.1,1.1H296c0.6,0,1.1-0.5,1.1-1.1V96.5
			C297.1,95.9,296.6,95.4,296,95.4z M275.1,97.6h19.7v11l-3.3-3.3l-4.4,4.4l-2.2-2.2l-9.9,9.9V97.6z M276.7,117.3l8.3-8.3l8.3,8.3
			H276.7z M294.9,115.7l-6.1-6.1l2.8-2.8l3.3,3.3V115.7z"/>
		<g opacity="0.25">
			<g>
				<path fill="#50B8E7" d="M277.3,103L277.3,103c0,1.8,1.5,3.3,3.3,3.3l0,0c1.8,0,3.3-1.5,3.3-3.3v0c0-1.8-1.5-3.3-3.3-3.3l0,0
					C278.8,99.8,277.3,101.2,277.3,103z"/>
			</g>
		</g>
		<g opacity="0.5">
			<g>
				<path fill="#51B8E7" d="M280.6,101.9c0.6,0,1.1,0.5,1.1,1.1c0,0.6-0.5,1.1-1.1,1.1s-1.1-0.5-1.1-1.1
					C279.5,102.4,280,101.9,280.6,101.9 M280.6,100.8c-1.2,0-2.2,1-2.2,2.2s1,2.2,2.2,2.2s2.2-1,2.2-2.2S281.8,100.8,280.6,100.8
					L280.6,100.8z"/>
			</g>
		</g>
	</g>
	<g>
		<g>
			<g>
				<path fill="#9EA3A5" d="M169.9,100.8c3.6,0,6.6,2.9,6.6,6.6c0,3.6-2.9,6.6-6.6,6.6c-3.6,0-6.6-2.9-6.6-6.6
					C163.3,103.8,166.3,100.8,169.9,100.8 M169.9,98.7c-4.8,0-8.8,3.9-8.8,8.8c0,4.8,3.9,8.8,8.8,8.8c4.8,0,8.8-3.9,8.8-8.8
					C178.7,102.6,174.7,98.7,169.9,98.7L169.9,98.7z"/>
			</g>
		</g>
	</g>
	<g>
		<circle fill="#50B8E7" cx="169.9" cy="107.4" r="4.4"/>
	</g>
</g>
</svg>
