<?xml version="1.0" encoding="utf-8"?>
<!-- Generator: Adobe Illustrator 18.1.1, SVG Export Plug-In . SVG Version: 6.00 Build 0)  -->
<!DOCTYPE svg PUBLIC "-//W3C//DTD SVG 1.1//EN" "http://www.w3.org/Graphics/SVG/1.1/DTD/svg11.dtd">
<svg version="1.1" id="Ebene_1" xmlns="http://www.w3.org/2000/svg" xmlns:xlink="http://www.w3.org/1999/xlink" x="0px" y="0px"
	 width="570px" height="287.2px" viewBox="0 0 570 287.2" enable-background="new 0 0 570 287.2" xml:space="preserve">
<g>
	<g opacity="5.000000e-02">
		<g>
			<path fill="#9EA3A5" d="M51.5,30.7v183.1h74.5v0c0-12.1,9.8-21.9,21.9-21.9s21.9,9.8,21.9,21.9v0h39.5c0-12.9,3.2-25.9,10.1-37.8
				c20.9-36.2,67.1-48.6,103.3-27.7c24.2,14,37.8,39.4,37.8,65.5h39.5v0c0-12.1,9.8-21.9,21.9-21.9c12.1,0,21.9,9.8,21.9,21.9v0
				h74.5V30.7H51.5z"/>
		</g>
	</g>
	<g>
		<g opacity="0.5">
			<g>
				
					<rect x="99.5" y="166.6" transform="matrix(0.9806 0.1961 -0.1961 0.9806 35.0409 -18.4555)" fill="#9EA3A5" width="22.4" height="2.2"/>
			</g>
		</g>
		<g opacity="0.5">
			<g>
				<rect x="187.4" y="168.8" fill="#9EA3A5" width="21.9" height="2.2"/>
			</g>
		</g>
		<g opacity="0.5">
			<g>
				
					<rect x="163.7" y="162.2" transform="matrix(0.8575 0.5145 -0.5145 0.8575 109.1808 -67.5234)" fill="#9EA3A5" width="25.6" height="2.2"/>
			</g>
		</g>
		<g opacity="0.5">
			<g>
				
					<rect x="153.5" y="146.8" transform="matrix(9.960043e-02 0.995 -0.995 9.960043e-02 296.2249 -11.6645)" fill="#9EA3A5" width="2.2" height="22"/>
			</g>
		</g>
		<g opacity="0.5">
			<g>
				
					<rect x="131.5" y="152.2" transform="matrix(0.4472 0.8944 -0.8944 0.4472 220.3831 -27.7412)" fill="#9EA3A5" width="2.2" height="24.5"/>
			</g>
		</g>
		<g>
			<circle fill="#9EA3A5" cx="121.7" cy="169.9" r="3.3"/>
		</g>
		<g>
			<circle fill="#9EA3A5" cx="99.8" cy="165.5" r="3.3"/>
		</g>
		<g>
			<circle fill="#9EA3A5" cx="143.6" cy="158.9" r="3.3"/>
		</g>
		<g>
			<circle fill="#9EA3A5" cx="165.5" cy="156.8" r="3.3"/>
		</g>
		<g>
			<circle fill="#9EA3A5" cx="187.4" cy="169.9" r="3.3"/>
		</g>
		<g>
			<circle fill="#9EA3A5" cx="209.4" cy="169.9" r="3.3"/>
		</g>
		<g opacity="0.5">
			<g>
				
					<rect x="460.4" y="72.6" transform="matrix(0.6247 0.7809 -0.7809 0.6247 240.8163 -327.856)" fill="#9EA3A5" width="2.2" height="28.1"/>
			</g>
		</g>
		<g opacity="0.5">
			<g>
				<rect x="384.8" y="100.8" fill="#9EA3A5" width="21.9" height="2.2"/>
			</g>
		</g>
		<g opacity="0.5">
			<g>
				<rect x="406.7" y="100.8" fill="#9EA3A5" width="21.9" height="2.2"/>
			</g>
		</g>
		<g opacity="0.5">
			<g>
				
					<rect x="438.5" y="87.2" transform="matrix(0.2871 0.9579 -0.9579 0.2871 407.8711 -350.723)" fill="#9EA3A5" width="2.2" height="22.9"/>
			</g>
		</g>
		<g>
			<circle fill="#9EA3A5" cx="450.5" cy="95.4" r="3.3"/>
		</g>
		<g>
			<circle fill="#9EA3A5" cx="472.4" cy="77.8" r="3.3"/>
		</g>
		<g>
			<circle fill="#9EA3A5" cx="428.6" cy="101.9" r="3.3"/>
		</g>
		<g>
			<circle fill="#9EA3A5" cx="406.7" cy="101.9" r="3.3"/>
		</g>
		<g opacity="0.5">
			<g>
				
					<rect x="328.8" y="113" transform="matrix(0.4817 0.8764 -0.8764 0.4817 281.0152 -224.0912)" fill="#9EA3A5" width="2.2" height="25"/>
			</g>
		</g>
		<g opacity="0.5">
			<g>
				
					<rect x="306.9" y="122.1" transform="matrix(0.1484 0.9889 -0.9889 0.1484 394.0211 -191.1892)" fill="#9EA3A5" width="2.2" height="22.2"/>
			</g>
		</g>
		<g opacity="0.5">
			<g>
				
					<rect x="372.7" y="95.7" transform="matrix(0.5146 0.8574 -0.8574 0.5146 274.4673 -267.8178)" fill="#9EA3A5" width="2.2" height="25.6"/>
			</g>
		</g>
		<g>
			<circle fill="#9EA3A5" cx="384.8" cy="101.9" r="3.3"/>
		</g>
		<g opacity="0.5">
			<g>
				
					<rect x="350.8" y="106.1" transform="matrix(0.1963 0.9805 -0.9805 0.1963 397.7992 -250.7549)" fill="#9EA3A5" width="2.2" height="22.4"/>
			</g>
		</g>
		<g>
			<circle fill="#9EA3A5" cx="319" cy="131.5" r="3.3"/>
		</g>
		<g>
			<circle fill="#9EA3A5" cx="340.9" cy="119.5" r="3.3"/>
		</g>
		<g>
			<circle fill="#9EA3A5" cx="362.8" cy="115.1" r="3.3"/>
		</g>
		<g>
			<circle fill="#9EA3A5" cx="297.1" cy="134.8" r="3.3"/>
		</g>
		<g>
			<path fill="#9EA3A5" d="M209.3,168.8l0.1,2.2l13.7-0.7c0.5-0.8,1.1-1.5,1.7-2.3L209.3,168.8z"/>
			<path fill="#9EA3A5" d="M297.5,135.8l-0.8-2l-10.8,4.3c1.8,0,3.5,0.1,5.3,0.2L297.5,135.8z"/>
		</g>
	</g>
	<g>
		<path fill="#50B8E7" d="M209.4,95.8l-4.8-4.8h-12.7c-1.8,0-3.3-1.5-3.3-3.3V69.1c0-1.8,1.5-3.3,3.3-3.3h35.1
			c1.8,0,3.3,1.5,3.3,3.3v18.6c0,1.8-1.5,3.3-3.3,3.3h-12.7L209.4,95.8z M191.8,68c-0.6,0-1.1,0.5-1.1,1.1v18.6
			c0,0.6,0.5,1.1,1.1,1.1h13.6l3.9,3.9l3.9-3.9h13.6c0.6,0,1.1-0.5,1.1-1.1V69.1c0-0.6-0.5-1.1-1.1-1.1H191.8z"/>
	</g>
	<g>
		<rect x="195.1" y="72.3" fill="#50B8E7" width="28.5" height="2.2"/>
	</g>
	<g>
		<rect x="195.1" y="77.8" fill="#50B8E7" width="13.2" height="2.2"/>
	</g>
	<g>
		<rect x="210.5" y="77.8" fill="#50B8E7" width="6.6" height="2.2"/>
	</g>
	<g>
		<rect x="210.5" y="83.3" fill="#50B8E7" width="4.4" height="2.2"/>
	</g>
	<g>
		<rect x="195.1" y="83.3" fill="#50B8E7" width="13.2" height="2.2"/>
	</g>
	<g opacity="0.25">
		<g>
			<polygon fill="#9EA3A5" points="526.2,212.7 517.4,213.8 517.4,5.5 519.6,5.5 			"/>
		</g>
	</g>
	<g opacity="0.25">
		<g>
			<polygon fill="#9EA3A5" points="43.8,212.7 52.6,213.8 52.6,5.5 50.4,5.5 			"/>
		</g>
	</g>
	<g>
		<g>
			<g>
				<circle fill="#9EA3A5" cx="59.2" cy="7.7" r="2.2"/>
			</g>
			<g opacity="0.75">
				<circle fill="#9EA3A5" cx="76.7" cy="7.7" r="2.2"/>
			</g>
			<g opacity="0.5">
				<circle fill="#9EA3A5" cx="68" cy="7.7" r="2.2"/>
			</g>
		</g>
	</g>
	<g>
		<rect y="212.7" fill="#9EA3A5" width="126.1" height="2.2"/>
	</g>
	<path fill="#9EA3A5" d="M514.1,0H55.9c-3,0-5.5,2.5-5.5,5.5v208.3h2.2V14.2h464.8v199.5h2.2V5.5C519.6,2.5,517.1,0,514.1,0z
		 M52.6,13.2V5.5c0-1.8,1.5-3.3,3.3-3.3h458.2c1.8,0,3.3,1.5,3.3,3.3v7.7H52.6z"/>
	<g>
		<g opacity="0.5">
			<g>
				
					<rect x="99.5" y="155.7" transform="matrix(0.9806 0.1961 -0.1961 0.9806 32.8911 -18.6683)" fill="#50B8E7" width="22.4" height="2.2"/>
			</g>
		</g>
		<g opacity="0.5">
			<g>
				
					<rect x="219.2" y="145.3" transform="matrix(0.669 0.7432 -0.7432 0.669 191.872 -110.7873)" fill="#50B8E7" width="2.2" height="29.5"/>
			</g>
		</g>
		<g opacity="0.5">
			<g>
				
					<rect x="186.1" y="163.3" transform="matrix(0.8944 0.4472 -0.4472 0.8944 94.4783 -71.3703)" fill="#50B8E7" width="24.5" height="2.2"/>
			</g>
		</g>
		<g opacity="0.5">
			<g>
				
					<rect x="162.4" y="149.1" transform="matrix(0.7809 0.6247 -0.6247 0.7809 132.4848 -77.3391)" fill="#50B8E7" width="28.1" height="2.2"/>
			</g>
		</g>
		<g opacity="0.5">
			<g>
				
					<rect x="153.5" y="133.2" transform="matrix(0.2871 0.9579 -0.9579 0.2871 248.7892 -44.8977)" fill="#50B8E7" width="2.2" height="22.9"/>
			</g>
		</g>
		<g opacity="0.5">
			<g>
				
					<rect x="131.5" y="141.2" transform="matrix(0.4472 0.8944 -0.8944 0.4472 210.5788 -33.8005)" fill="#50B8E7" width="2.2" height="24.5"/>
			</g>
		</g>
		<g>
			<circle fill="#50B8E7" cx="121.7" cy="158.9" r="3.3"/>
		</g>
		<g>
			<circle fill="#50B8E7" cx="99.8" cy="154.6" r="3.3"/>
		</g>
		<g>
			<circle fill="#50B8E7" cx="143.6" cy="148" r="3.3"/>
		</g>
		<g>
			<circle fill="#50B8E7" cx="165.5" cy="141.4" r="3.3"/>
		</g>
		<g>
			<circle fill="#50B8E7" cx="187.4" cy="158.9" r="3.3"/>
		</g>
		<g>
			<circle fill="#50B8E7" cx="209.4" cy="169.9" r="3.3"/>
		</g>
		<g opacity="0.5">
			<g>
				
					<rect x="394.6" y="77.6" transform="matrix(0.1963 0.9805 -0.9805 0.1963 405.0927 -316.6533)" fill="#50B8E7" width="2.2" height="22.4"/>
			</g>
		</g>
		<g opacity="0.5">
			<g>
				
					<rect x="406.5" y="87.7" transform="matrix(0.9806 0.1961 -0.1961 0.9806 25.523 -80.1807)" fill="#50B8E7" width="22.4" height="2.2"/>
			</g>
		</g>
		<g opacity="0.5">
			<g>
				
					<rect x="438.5" y="73.2" transform="matrix(0.4472 0.8944 -0.8944 0.4472 319.455 -345.8891)" fill="#50B8E7" width="2.2" height="24.5"/>
			</g>
		</g>
		<g opacity="0.5">
			<g>
				
					<rect x="460.4" y="57.2" transform="matrix(0.6247 0.7809 -0.7809 0.6247 228.8329 -333.6155)" fill="#50B8E7" width="2.2" height="28.1"/>
			</g>
		</g>
		<g>
			<circle fill="#50B8E7" cx="472.4" cy="62.5" r="3.3"/>
		</g>
		<g>
			<circle fill="#50B8E7" cx="450.5" cy="80" r="3.3"/>
		</g>
		<g>
			<circle fill="#50B8E7" cx="428.6" cy="91" r="3.3"/>
		</g>
		<g>
			<circle fill="#50B8E7" cx="406.7" cy="86.6" r="3.3"/>
		</g>
		<g opacity="0.5">
			<g>
				
					<rect x="328.8" y="100.4" transform="matrix(0.5447 0.8386 -0.8386 0.5447 245.3476 -225.0403)" fill="#50B8E7" width="2.2" height="26.1"/>
			</g>
		</g>
		<g opacity="0.5">
			<g>
				
					<rect x="241.2" y="130.8" transform="matrix(0.5146 0.8574 -0.8574 0.5146 240.6989 -138.0109)" fill="#50B8E7" width="2.2" height="25.6"/>
			</g>
		</g>
		<g opacity="0.5">
			<g>
				
					<rect x="263.1" y="122.3" transform="matrix(0.2871 0.9579 -0.9579 0.2871 316.4361 -157.7137)" fill="#50B8E7" width="2.2" height="22.9"/>
			</g>
		</g>
		<g opacity="0.5">
			<g>
				
					<rect x="285" y="114.3" transform="matrix(0.3711 0.9286 -0.9286 0.3711 296.9977 -186.3886)" fill="#50B8E7" width="2.2" height="23.6"/>
			</g>
		</g>
		<g opacity="0.5">
			<g>
				
					<rect x="306.9" y="110.1" transform="matrix(4.979156e-02 0.9988 -0.9988 4.979156e-02 413.6572 -192.5432)" fill="#50B8E7" width="2.2" height="22"/>
			</g>
		</g>
		<g opacity="0.5">
			<g>
				
					<rect x="372.7" y="84.8" transform="matrix(0.5146 0.8574 -0.8574 0.5146 265.0688 -273.1381)" fill="#50B8E7" width="2.2" height="25.6"/>
			</g>
		</g>
		<g>
			<circle fill="#50B8E7" cx="384.8" cy="91" r="3.3"/>
		</g>
		<g opacity="0.5">
			<g>
				
					<rect x="350.8" y="94.2" transform="matrix(9.960043e-02 0.995 -0.995 9.960043e-02 421.5269 -255.366)" fill="#50B8E7" width="2.2" height="22"/>
			</g>
		</g>
		<g>
			<circle fill="#50B8E7" cx="319" cy="120.6" r="3.3"/>
		</g>
		<g>
			<circle fill="#50B8E7" cx="340.9" cy="106.3" r="3.3"/>
		</g>
		<g>
			<circle fill="#50B8E7" cx="362.8" cy="104.1" r="3.3"/>
		</g>
		<g>
			<circle fill="#50B8E7" cx="297.1" cy="121.7" r="3.3"/>
		</g>
		<g>
			<circle fill="#50B8E7" cx="275.1" cy="130.4" r="3.3"/>
		</g>
		<g>
			<circle fill="#50B8E7" cx="253.2" cy="137" r="3.3"/>
		</g>
		<g>
			<circle fill="#50B8E7" cx="231.3" cy="150.2" r="3.3"/>
		</g>
	</g>
	<g opacity="0.2">
		<g>
			<rect x="52.6" y="14.2" fill="#50B8E7" width="464.8" height="15.3"/>
		</g>
	</g>
	<g>
		<rect x="52.6" y="29.5" fill="#50B8E7" width="464.8" height="1.1"/>
	</g>
	<g opacity="0.5">
		<g>
			<rect x="462.6" y="19.7" fill="#50B8E7" width="32.9" height="4.4"/>
		</g>
	</g>
	<g opacity="0.5">
		<g>
			<rect x="473.5" y="37.3" fill="#50B8E7" width="32.9" height="4.4"/>
		</g>
	</g>
	<g opacity="0.5">
		<g>
			<rect x="473.5" y="44.9" fill="#9EA3A5" width="32.9" height="4.4"/>
		</g>
	</g>
	<g>
		<rect x="464.8" y="37.3" fill="#50B8E7" width="4.4" height="4.4"/>
	</g>
	<g>
		<rect x="464.8" y="44.9" fill="#9EA3A5" width="4.4" height="4.4"/>
	</g>
	<g opacity="0.5">
		<g>
			<rect x="395.7" y="19.7" fill="#50B8E7" width="43.8" height="4.4"/>
		</g>
	</g>
	<g opacity="0.5">
		<g>
			<rect x="129.3" y="19.7" fill="#50B8E7" width="43.8" height="4.4"/>
		</g>
	</g>
	<g>
		<rect x="195.1" y="19.7" fill="#50B8E7" width="43.8" height="4.4"/>
	</g>
	<g opacity="0.5">
		<g>
			<rect x="260.9" y="19.7" fill="#50B8E7" width="43.8" height="4.4"/>
		</g>
	</g>
	<g opacity="0.5">
		<g>
			<rect x="63.6" y="19.7" fill="#50B8E7" width="43.8" height="4.4"/>
		</g>
	</g>
	<g opacity="0.5">
		<g>
			<rect x="63.6" y="169.9" fill="#9EA3A5" width="11" height="4.4"/>
		</g>
	</g>
	<g opacity="0.5">
		<g>
			<rect x="70.2" y="182" fill="#9EA3A5" width="4.4" height="4.4"/>
		</g>
	</g>
	<g opacity="0.5">
		<g>
			<rect x="63.6" y="157.8" fill="#9EA3A5" width="11" height="4.4"/>
		</g>
	</g>
	<g opacity="0.5">
		<g>
			<rect x="63.6" y="145.8" fill="#9EA3A5" width="11" height="4.4"/>
		</g>
	</g>
	<g opacity="0.5">
		<g>
			<rect x="63.6" y="133.7" fill="#9EA3A5" width="11" height="4.4"/>
		</g>
	</g>
	<g opacity="0.5">
		<g>
			<rect x="63.6" y="121.7" fill="#9EA3A5" width="11" height="4.4"/>
		</g>
	</g>
	<g opacity="0.5">
		<g>
			<rect x="63.6" y="109.6" fill="#9EA3A5" width="11" height="4.4"/>
		</g>
	</g>
	<g opacity="0.5">
		<g>
			<rect x="63.6" y="97.6" fill="#9EA3A5" width="11" height="4.4"/>
		</g>
	</g>
	<g opacity="0.5">
		<g>
			<rect x="63.6" y="85.5" fill="#9EA3A5" width="11" height="4.4"/>
		</g>
	</g>
	<g opacity="0.5">
		<g>
			<rect x="63.6" y="73.4" fill="#9EA3A5" width="11" height="4.4"/>
		</g>
	</g>
	<g opacity="0.5">
		<g>
			<rect x="63.6" y="61.4" fill="#9EA3A5" width="11" height="4.4"/>
		</g>
	</g>
	<path opacity="0.5" fill="#50B8E7" d="M226.9,64.7h-35.1c-2.4,0-4.4,2-4.4,4.4v18.6c0,2.4,2,4.4,4.4,4.4h12.2l3.7,3.7l0.5,0.5v70.3
		h2.2V96.3l0.5-0.5l3.7-3.7h12.2c2.4,0,4.4-2,4.4-4.4V69.1C231.3,66.6,229.3,64.7,226.9,64.7z M229.1,87.7c0,1.2-1,2.2-2.2,2.2
		h-13.2l-4.4,4.4l-4.4-4.4h-13.2c-1.2,0-2.2-1-2.2-2.2V69.1c0-1.2,1-2.2,2.2-2.2h35.1c1.2,0,2.2,1,2.2,2.2V87.7z"/>
	<g opacity="0.5">
		<g>
			<rect x="450.5" y="17.5" fill="#50B8E7" width="1.1" height="8.8"/>
		</g>
	</g>
	<g opacity="0.5">
		<polygon fill="#50B8E7" points="499.8,19.7 503.1,23 506.4,19.7 		"/>
	</g>
	<g>
		<polygon fill="#50B8E7" points="73.4,49.3 71.2,49.3 71.2,50.4 74.5,50.4 74.5,47.1 73.4,47.1 		"/>
		<polygon fill="#50B8E7" points="64.7,47.1 63.6,47.1 63.6,50.4 66.9,50.4 66.9,49.3 64.7,49.3 		"/>
		<polygon fill="#50B8E7" points="71.2,39.5 71.2,40.6 73.4,40.6 73.4,42.8 74.5,42.8 74.5,39.5 		"/>
		<polygon fill="#50B8E7" points="63.6,39.5 63.6,42.8 64.7,42.8 64.7,40.6 66.9,40.6 66.9,39.5 		"/>
	</g>
	<rect x="443.9" y="212.7" fill="#9EA3A5" width="126.1" height="2.2"/>
	<g>
		<g>
			<path fill="#9EA3A5" d="M467,183.1H354.1c0.3,0.7,0.6,1.5,0.9,2.2H467V183.1z"/>
			<path fill="#9EA3A5" d="M86.6,183.1V62.5h-2.2h-3.3v2.2h3.3v9.9h-3.3v2.2h3.3v9.9h-3.3v2.2h3.3v9.9h-3.3v2.2h3.3v9.9h-3.3v2.2
				h3.3v9.9h-3.3v2.2h3.3v9.9h-3.3v2.2h3.3v9.9h-3.3v2.2h3.3v9.9h-3.3v2.2h3.3v9.9h-3.3v2.2h3.3v9.9h-3.3v2.2h3.3H215
				c0.3-0.7,0.6-1.5,0.9-2.2H86.6z"/>
		</g>
		<path fill="#FD9838" d="M422,194c-10.5,0-19.1,8.3-19.7,18.6h-43.9c-0.4-25-13.5-49.1-36.7-62.5c-11.2-6.4-23.8-9.8-36.6-9.8
			c-26.2,0-50.6,14.1-63.7,36.7c-6.5,11.2-9.6,23.5-9.8,35.6h-44c-0.6-10.4-9.2-18.6-19.7-18.6c-10.9,0-19.7,8.9-19.7,19.7
			s8.9,19.7,19.7,19.7c10.5,0,19.1-8.3,19.7-18.6h43.9c0.4,25,13.5,49.1,36.7,62.5c11.2,6.4,23.8,9.8,36.6,9.8
			c26.2,0,50.6-14.1,63.7-36.7c6.5-11.2,9.6-23.5,9.8-35.6h44c0.6,10.4,9.2,18.6,19.7,18.6c10.9,0,19.7-8.9,19.7-19.7
			S432.9,194,422,194z M148,231.3c-9.7,0-17.5-7.9-17.5-17.5s7.9-17.5,17.5-17.5s17.5,7.9,17.5,17.5S157.7,231.3,148,231.3z
			 M346.7,249.4c-12.7,22-36.4,35.6-61.8,35.6c-12.4,0-24.7-3.3-35.6-9.6c-34-19.6-45.7-63.3-26.1-97.3c12.7-22,36.4-35.6,61.8-35.6
			c12.4,0,24.7,3.3,35.6,9.6C354.6,171.7,366.3,215.4,346.7,249.4z M422,231.3c-9.7,0-17.5-7.9-17.5-17.5s7.9-17.5,17.5-17.5
			s17.5,7.9,17.5,17.5S431.7,231.3,422,231.3z"/>
		<g opacity="0.25">
			<g>
				<path fill="#50B8E7" d="M285,178.7c19.3,0,35.1,15.7,35.1,35.1s-15.7,35.1-35.1,35.1s-35.1-15.7-35.1-35.1
					S265.7,178.7,285,178.7 M285,174.3c-21.8,0-39.5,17.7-39.5,39.5s17.7,39.5,39.5,39.5s39.5-17.7,39.5-39.5S306.8,174.3,285,174.3
					L285,174.3z"/>
			</g>
		</g>
		<path fill="#50B8E7" d="M285,173.2c-22.4,0-40.6,18.2-40.6,40.6s18.2,40.6,40.6,40.6s40.6-18.2,40.6-40.6S307.4,173.2,285,173.2z
			 M311.5,241.5l-1.6-1.8c-0.4-0.5-1.1-0.5-1.5-0.1c-0.5,0.4-0.5,1.1-0.1,1.5l1.6,1.8c-0.5,0.4-0.9,0.8-1.4,1.1l-1.4-1.9
			c-0.4-0.5-1-0.6-1.5-0.2c-0.5,0.4-0.6,1-0.2,1.5l1.4,2c-0.5,0.3-1,0.7-1.5,1l-1.2-2.1c-0.3-0.5-1-0.7-1.5-0.4
			c-0.5,0.3-0.7,1-0.4,1.5l1.2,2.1c-0.5,0.3-1.1,0.6-1.6,0.8l-1-2.2c-0.2-0.6-0.9-0.8-1.4-0.6c-0.6,0.2-0.8,0.9-0.6,1.4l1,2.2
			c-0.6,0.2-1.1,0.5-1.7,0.7l-0.8-2.3c-0.2-0.6-0.8-0.9-1.4-0.7c-0.6,0.2-0.9,0.8-0.7,1.4l0.8,2.3c-0.6,0.2-1.2,0.3-1.8,0.5
			l-0.5-2.4c-0.1-0.6-0.7-1-1.3-0.8c-0.6,0.1-1,0.7-0.8,1.3l0.5,2.4c-0.6,0.1-1.2,0.2-1.8,0.3l-0.3-2.4c-0.1-0.6-0.6-1-1.2-1
			c-0.6,0.1-1,0.6-1,1.2l0.3,2.4c-0.6,0-1.2,0.1-1.8,0.1v-2.4c0-0.6-0.5-1.1-1.1-1.1s-1.1,0.5-1.1,1.1v2.4c-0.6,0-1.2,0-1.8-0.1
			l0.3-2.4c0.1-0.6-0.4-1.1-1-1.2c-0.6-0.1-1.1,0.4-1.2,1l-0.3,2.4c-0.6-0.1-1.2-0.2-1.8-0.3l0.5-2.4c0.1-0.6-0.3-1.2-0.8-1.3
			c-0.6-0.1-1.2,0.3-1.3,0.8L276,251c-0.6-0.1-1.2-0.3-1.8-0.5l0.8-2.3c0.2-0.6-0.1-1.2-0.7-1.4c-0.6-0.2-1.2,0.1-1.4,0.7l-0.8,2.3
			c-0.6-0.2-1.1-0.4-1.7-0.7l1-2.2c0.2-0.6,0-1.2-0.6-1.4c-0.6-0.2-1.2,0-1.4,0.6l-1,2.2c-0.5-0.3-1.1-0.5-1.6-0.8l1.2-2.1
			c0.3-0.5,0.1-1.2-0.4-1.5c-0.5-0.3-1.2-0.1-1.5,0.4l-1.2,2.1c-0.5-0.3-1-0.7-1.5-1l1.4-2c0.4-0.5,0.2-1.2-0.2-1.5
			c-0.5-0.4-1.2-0.2-1.5,0.2l-1.4,1.9c-0.5-0.4-1-0.8-1.4-1.1l1.6-1.8c0.4-0.4,0.4-1.1-0.1-1.5c-0.4-0.4-1.1-0.4-1.5,0.1l-1.6,1.8
			c-0.4-0.4-0.9-0.8-1.3-1.3l1.8-1.6c0.5-0.4,0.5-1.1,0.1-1.5c-0.4-0.5-1.1-0.5-1.5-0.1l-1.8,1.6c-0.4-0.5-0.8-0.9-1.1-1.4l1.9-1.4
			c0.5-0.4,0.6-1,0.2-1.5c-0.4-0.5-1-0.6-1.5-0.2l-2,1.4c-0.3-0.5-0.7-1-1-1.5l2.1-1.2c0.5-0.3,0.7-1,0.4-1.5
			c-0.3-0.5-1-0.7-1.5-0.4l-2.1,1.2c-0.3-0.5-0.6-1.1-0.8-1.6l2.2-1c0.6-0.2,0.8-0.9,0.6-1.4c-0.2-0.6-0.9-0.8-1.4-0.6l-2.2,1
			c-0.2-0.6-0.5-1.1-0.7-1.7l2.3-0.8c0.6-0.2,0.9-0.8,0.7-1.4c-0.2-0.6-0.8-0.9-1.4-0.7l-2.3,0.8c-0.2-0.6-0.3-1.2-0.5-1.8l2.4-0.5
			c0.6-0.1,1-0.7,0.8-1.3c-0.1-0.6-0.7-1-1.3-0.8l-2.4,0.5c-0.1-0.6-0.2-1.2-0.3-1.8l2.4-0.3c0.6-0.1,1-0.6,1-1.2
			c-0.1-0.6-0.6-1-1.2-1l-2.4,0.3c0-0.6-0.1-1.2-0.1-1.8h2.4c0.6,0,1.1-0.5,1.1-1.1s-0.5-1.1-1.1-1.1h-2.4c0-0.6,0-1.2,0.1-1.8
			l2.4,0.3c0,0,0.1,0,0.1,0c0.6,0,1-0.4,1.1-1c0.1-0.6-0.4-1.1-1-1.2l-2.4-0.3c0.1-0.6,0.2-1.2,0.3-1.8l2.4,0.5c0.1,0,0.2,0,0.2,0
			c0.5,0,1-0.4,1.1-0.9c0.1-0.6-0.3-1.2-0.8-1.3l-2.4-0.5c0.1-0.6,0.3-1.2,0.5-1.8l2.3,0.8c0.1,0,0.2,0.1,0.3,0.1
			c0.5,0,0.9-0.3,1-0.8c0.2-0.6-0.1-1.2-0.7-1.4l-2.3-0.8c0.2-0.6,0.4-1.1,0.7-1.7l2.2,1c0.1,0.1,0.3,0.1,0.4,0.1
			c0.4,0,0.8-0.2,1-0.7c0.2-0.6,0-1.2-0.6-1.4l-2.2-1c0.3-0.5,0.5-1.1,0.8-1.6l2.1,1.2c0.2,0.1,0.4,0.1,0.5,0.1c0.4,0,0.7-0.2,1-0.5
			c0.3-0.5,0.1-1.2-0.4-1.5l-2.1-1.2c0.3-0.5,0.7-1,1-1.5l2,1.4c0.2,0.1,0.4,0.2,0.6,0.2c0.3,0,0.7-0.2,0.9-0.5
			c0.4-0.5,0.2-1.2-0.2-1.5l-1.9-1.4c0.4-0.5,0.8-1,1.1-1.4l1.8,1.6c0.2,0.2,0.5,0.3,0.7,0.3c0.3,0,0.6-0.1,0.8-0.4
			c0.4-0.4,0.4-1.1-0.1-1.5l-1.8-1.6c0.4-0.4,0.8-0.9,1.3-1.3l1.6,1.8c0.2,0.2,0.5,0.4,0.8,0.4c0.3,0,0.5-0.1,0.7-0.3
			c0.5-0.4,0.5-1.1,0.1-1.5l-1.6-1.8c0.5-0.4,0.9-0.8,1.4-1.1l1.4,1.9c0.2,0.3,0.5,0.5,0.9,0.5c0.2,0,0.4-0.1,0.6-0.2
			c0.5-0.4,0.6-1,0.2-1.5l-1.4-2c0.5-0.3,1-0.7,1.5-1l1.2,2.1c0.2,0.4,0.6,0.5,1,0.5c0.2,0,0.4,0,0.5-0.1c0.5-0.3,0.7-1,0.4-1.5
			l-1.2-2.1c0.5-0.3,1.1-0.6,1.6-0.8l1,2.2c0.2,0.4,0.6,0.7,1,0.7c0.1,0,0.3,0,0.4-0.1c0.6-0.2,0.8-0.9,0.6-1.4l-1-2.2
			c0.6-0.2,1.1-0.5,1.7-0.7l0.8,2.3c0.2,0.5,0.6,0.8,1,0.8c0.1,0,0.2,0,0.3-0.1c0.6-0.2,0.9-0.8,0.7-1.4l-0.8-2.3
			c0.6-0.2,1.2-0.3,1.8-0.5l0.5,2.4c0.1,0.5,0.6,0.9,1.1,0.9c0.1,0,0.2,0,0.2,0c0.6-0.1,1-0.7,0.8-1.3l-0.5-2.4
			c0.6-0.1,1.2-0.2,1.8-0.3l0.3,2.4c0.1,0.6,0.5,1,1.1,1c0,0,0.1,0,0.1,0c0.6-0.1,1-0.6,1-1.2l-0.3-2.4c0.6,0,1.2-0.1,1.8-0.1v2.4
			c0,0.6,0.5,1.1,1.1,1.1s1.1-0.5,1.1-1.1v-2.4c0.6,0,1.2,0,1.8,0.1l-0.3,2.4c-0.1,0.6,0.4,1.1,1,1.2c0,0,0.1,0,0.1,0
			c0.6,0,1-0.4,1.1-1l0.3-2.4c0.6,0.1,1.2,0.2,1.8,0.3l-0.5,2.4c-0.1,0.6,0.3,1.2,0.8,1.3c0.1,0,0.2,0,0.2,0c0.5,0,1-0.4,1.1-0.9
			l0.5-2.4c0.6,0.1,1.2,0.3,1.8,0.5l-0.8,2.3c-0.2,0.6,0.1,1.2,0.7,1.4c0.1,0,0.2,0.1,0.3,0.1c0.5,0,0.9-0.3,1-0.8l0.8-2.3
			c0.6,0.2,1.1,0.4,1.7,0.7l-1,2.2c-0.2,0.6,0,1.2,0.6,1.4c0.1,0.1,0.3,0.1,0.4,0.1c0.4,0,0.8-0.2,1-0.7l1-2.2
			c0.5,0.3,1.1,0.5,1.6,0.8l-1.2,2.1c-0.3,0.5-0.1,1.2,0.4,1.5c0.2,0.1,0.4,0.1,0.5,0.1c0.4,0,0.7-0.2,1-0.5l1.2-2.1
			c0.5,0.3,1,0.7,1.5,1l-1.4,2c-0.4,0.5-0.2,1.2,0.2,1.5c0.2,0.1,0.4,0.2,0.6,0.2c0.3,0,0.7-0.2,0.9-0.5l1.4-1.9
			c0.5,0.4,1,0.8,1.4,1.1l-1.6,1.8c-0.4,0.4-0.4,1.1,0.1,1.5c0.2,0.2,0.5,0.3,0.7,0.3c0.3,0,0.6-0.1,0.8-0.4l1.6-1.8
			c0.4,0.4,0.9,0.8,1.3,1.3l-1.8,1.6c-0.5,0.4-0.5,1.1-0.1,1.5c0.2,0.2,0.5,0.4,0.8,0.4c0.3,0,0.5-0.1,0.7-0.3l1.8-1.6
			c0.4,0.5,0.8,0.9,1.1,1.4l-1.9,1.4c-0.5,0.4-0.6,1-0.2,1.5c0.2,0.3,0.5,0.5,0.9,0.5c0.2,0,0.4-0.1,0.6-0.2l2-1.4
			c0.3,0.5,0.7,1,1,1.5l-2.1,1.2c-0.5,0.3-0.7,1-0.4,1.5c0.2,0.4,0.6,0.5,1,0.5c0.2,0,0.4,0,0.5-0.1l2.1-1.2
			c0.3,0.5,0.6,1.1,0.8,1.6l-2.2,1c-0.6,0.2-0.8,0.9-0.6,1.4c0.2,0.4,0.6,0.7,1,0.7c0.1,0,0.3,0,0.4-0.1l2.2-1
			c0.2,0.6,0.5,1.1,0.7,1.7l-2.3,0.8c-0.6,0.2-0.9,0.8-0.7,1.4c0.2,0.5,0.6,0.8,1,0.8c0.1,0,0.2,0,0.3-0.1l2.3-0.8
			c0.2,0.6,0.3,1.2,0.5,1.8l-2.4,0.5c-0.6,0.1-1,0.7-0.8,1.3c0.1,0.5,0.6,0.9,1.1,0.9c0.1,0,0.2,0,0.2,0l2.4-0.5
			c0.1,0.6,0.2,1.2,0.3,1.8l-2.4,0.3c-0.6,0.1-1,0.6-1,1.2c0.1,0.6,0.5,1,1.1,1c0,0,0.1,0,0.1,0l2.4-0.3c0,0.6,0.1,1.2,0.1,1.8h-2.4
			c-0.6,0-1.1,0.5-1.1,1.1s0.5,1.1,1.1,1.1h2.4c0,0.6,0,1.2-0.1,1.8l-2.4-0.3c-0.6-0.1-1.1,0.4-1.2,1c-0.1,0.6,0.4,1.1,1,1.2
			l2.4,0.3c-0.1,0.6-0.2,1.2-0.3,1.8l-2.4-0.5c-0.6-0.1-1.2,0.3-1.3,0.8c-0.1,0.6,0.3,1.2,0.8,1.3l2.4,0.5c-0.1,0.6-0.3,1.2-0.5,1.8
			l-2.3-0.8c-0.6-0.2-1.2,0.1-1.4,0.7c-0.2,0.6,0.1,1.2,0.7,1.4l2.3,0.8c-0.2,0.6-0.4,1.1-0.7,1.7l-2.2-1c-0.6-0.2-1.2,0-1.4,0.6
			c-0.2,0.6,0,1.2,0.6,1.4l2.2,1c-0.3,0.5-0.5,1.1-0.8,1.6l-2.1-1.2c-0.5-0.3-1.2-0.1-1.5,0.4c-0.3,0.5-0.1,1.2,0.4,1.5l2.1,1.2
			c-0.3,0.5-0.7,1-1,1.5l-2-1.4c-0.5-0.4-1.2-0.2-1.5,0.2c-0.4,0.5-0.2,1.2,0.2,1.5l1.9,1.4c-0.4,0.5-0.8,1-1.1,1.4l-1.8-1.6
			c-0.4-0.4-1.1-0.4-1.5,0.1c-0.4,0.4-0.4,1.1,0.1,1.5l1.8,1.6C312.3,240.6,311.9,241.1,311.5,241.5z"/>
		<g opacity="0.25">
			<g>
				<path fill="#50B8E7" d="M306.9,198.4c0,0,0.3,0,0.9,0.1c0.5,0.1,1.3,0.4,2,1.2c0.3,0.4,0.6,0.9,0.8,1.5c0,0.2,0.1,0.3,0.1,0.5
					c0,0.1,0,0.3,0,0.5c0,0.4-0.1,0.7-0.2,1.1c-0.2,0.7-0.7,1.4-1.3,1.9c-0.7,0.5-1.5,0.8-2.4,0.8c-0.3,0-0.3,0-0.6-0.1
					c-0.3,0-0.5-0.1-0.7-0.2c-0.4-0.1-0.8-0.3-1.1-0.6c-0.7-0.5-1.1-1.2-1.3-1.9c-0.2-0.7-0.2-1.5,0-2.1c0.2-0.7,0.5-1.1,0.8-1.6
					c0.7-0.8,1.5-1.1,2.1-1.2C306.6,198.4,306.9,198.4,306.9,198.4z M306.9,198.4c0,0-0.1,0-0.2,0c-0.1,0-0.4,0-0.6,0.1
					c-0.5,0.2-1.3,0.6-1.7,1.5c-0.2,0.4-0.3,0.9-0.2,1.4c0,0.5,0.2,1,0.5,1.4c0.3,0.4,0.6,0.7,1,0.9c0.2,0.1,0.4,0.2,0.6,0.2
					c0.1,0,0.2,0,0.3,0c0,0,0.3,0,0.4,0c0.9,0,1.7-0.4,2.3-1.2c0.1-0.2,0.3-0.4,0.3-0.6c0-0.1,0.1-0.2,0.1-0.4c0-0.1,0-0.2,0.1-0.3
					c0-0.5-0.1-1-0.2-1.4c-0.4-0.8-1.1-1.3-1.7-1.5c-0.3-0.1-0.5-0.1-0.6-0.1C307,198.4,306.9,198.4,306.9,198.4z"/>
			</g>
		</g>
		<g>
			<circle fill="#50B8E7" cx="306.9" cy="201.7" r="3.3"/>
		</g>
		<g opacity="0.25">
			<g>
				<path fill="#50B8E7" d="M315.1,188c0,0,0.4,0.3,1.1,0.9c0.4,0.3,0.8,0.6,1.3,1.1c0.3,0.2,0.5,0.4,0.8,0.7
					c0.3,0.3,0.6,0.6,0.9,0.9c0.6,0.6,1.3,1.3,2,2.1c0.7,0.8,1.4,1.7,2.1,2.7c0.7,1,1.3,2.2,2.1,3.4c0.7,1.2,1.2,2.6,1.9,4
					c0.3,0.7,0.5,1.5,0.8,2.2c0.2,0.8,0.6,1.5,0.7,2.4c0.4,1.6,0.8,3.3,0.9,5.1c0.5,3.6,0.3,7.5-0.3,11.4c-0.2,1-0.4,2-0.6,3
					c-0.2,1-0.6,2-0.9,2.9l-0.5,1.5l-0.6,1.4c-0.4,1-0.8,1.9-1.3,2.9c-1,1.8-2,3.7-3.4,5.4c-0.6,0.9-1.2,1.7-2,2.5l-1.1,1.2
					l-0.5,0.6l-0.3,0.3l-0.1,0.1l-0.1,0.1l0,0c-0.1,0.1,0.1-0.1-0.2,0.2l-2.2,1.9c-0.4,0.3-0.7,0.6-1.1,1l-1.4,1l-1.4,1l-0.7,0.5
					l-0.7,0.4c-0.9,0.5-1.9,1-2.8,1.6c-0.9,0.5-1.9,0.9-2.9,1.3l-1.4,0.6l-1.5,0.5c-1,0.3-2,0.7-2.9,0.9c-1,0.2-2,0.4-3,0.6
					c-3.9,0.6-7.8,0.8-11.4,0.3c-1.8-0.1-3.5-0.6-5.1-0.9c-0.8-0.2-1.6-0.5-2.4-0.7c-0.8-0.3-1.5-0.5-2.2-0.8
					c-1.4-0.7-2.8-1.2-4-1.9c-1.2-0.7-2.4-1.4-3.4-2.1c-1-0.8-1.9-1.4-2.7-2.1c-0.8-0.7-1.5-1.4-2.1-2c-0.3-0.3-0.6-0.6-0.9-0.9
					c-0.3-0.3-0.5-0.6-0.7-0.8c-0.4-0.5-0.8-1-1.1-1.3c-0.6-0.7-0.9-1.1-0.9-1.1s0.4,0.3,1.2,0.7c0.4,0.2,0.9,0.5,1.4,0.9
					c0.3,0.2,0.6,0.4,0.9,0.6c0.3,0.2,0.7,0.4,1.1,0.6c0.7,0.4,1.5,0.8,2.4,1.3c0.9,0.4,1.9,0.8,3,1.3c1.1,0.4,2.2,0.8,3.4,1.2
					c1.2,0.4,2.5,0.6,3.8,1c1.4,0.2,2.7,0.5,4.2,0.6c1.5,0,2.9,0.3,4.5,0.1c3.1,0,6.2-0.5,9.4-1.3c3.2-0.8,6.3-2.2,9.3-3.8
					c0.7-0.4,1.4-0.9,2.2-1.4l0.5-0.3l0.5-0.4l1-0.7l1-0.7c0.3-0.2,0.7-0.6,1.1-0.9l2.1-2c-0.3,0.3-0.1,0.1-0.1,0.1l0,0l0.1-0.1
					l0.1-0.1l0.2-0.2l0.4-0.5l0.9-1c0.6-0.6,1.1-1.3,1.6-2l0.8-1c0.3-0.3,0.5-0.7,0.7-1.1c0.5-0.7,0.9-1.5,1.4-2.2
					c1.6-3,3-6.1,3.8-9.3c0.8-3.2,1.3-6.4,1.3-9.4c0.1-1.5-0.1-3-0.1-4.5c-0.1-1.4-0.4-2.8-0.6-4.2c-0.3-1.3-0.6-2.6-1-3.8
					c-0.4-1.2-0.7-2.4-1.2-3.4c-0.4-1-0.9-2-1.3-3c-0.4-0.9-0.9-1.7-1.3-2.4c-0.2-0.4-0.4-0.7-0.6-1.1c-0.2-0.3-0.4-0.6-0.6-0.9
					c-0.4-0.6-0.7-1-0.9-1.4C315.4,188.5,315.1,188,315.1,188z"/>
			</g>
		</g>
		<g opacity="0.25">
			<g>
				<g>
					<g>
						<path fill="#50B8E7" d="M285,154.6c1.8,0,3.3,1.5,3.3,3.3c0,1.8-1.5,3.3-3.3,3.3c-1.8,0-3.3-1.5-3.3-3.3
							C281.7,156,283.2,154.6,285,154.6 M285,153.5c-2.4,0-4.4,2-4.4,4.4c0,2.4,2,4.4,4.4,4.4s4.4-2,4.4-4.4
							C289.4,155.4,287.4,153.5,285,153.5L285,153.5z"/>
					</g>
				</g>
			</g>
			<g>
				<g>
					<g>
						<path fill="#50B8E7" d="M257,162c1.1,0,2.2,0.6,2.9,1.6c0.9,1.6,0.4,3.6-1.2,4.5c-0.5,0.3-1.1,0.4-1.6,0.4
							c-1.1,0-2.2-0.6-2.9-1.6c-0.9-1.6-0.4-3.6,1.2-4.5C255.9,162.2,256.5,162,257,162 M257,161L257,161c-0.8,0-1.5,0.2-2.2,0.6
							c-1,0.6-1.7,1.5-2,2.7c-0.3,1.1-0.1,2.3,0.4,3.3c0.8,1.4,2.2,2.2,3.8,2.2c0.8,0,1.5-0.2,2.2-0.6c2.1-1.2,2.8-3.9,1.6-6
							C260.1,161.8,258.6,161,257,161L257,161z"/>
					</g>
				</g>
			</g>
			<g>
				<g>
					<g>
						<path fill="#50B8E7" d="M312.9,258.9c1.1,0,2.2,0.6,2.9,1.6c0.9,1.6,0.4,3.6-1.2,4.5c-0.5,0.3-1.1,0.4-1.6,0.4
							c-1.1,0-2.2-0.6-2.9-1.6c-0.9-1.6-0.4-3.6,1.2-4.5C311.8,259,312.4,258.9,312.9,258.9 M312.9,257.8L312.9,257.8
							c-0.8,0-1.5,0.2-2.2,0.6c-1,0.6-1.7,1.5-2,2.7c-0.3,1.1-0.1,2.3,0.4,3.3c0.8,1.4,2.2,2.2,3.8,2.2c0.8,0,1.5-0.2,2.2-0.6
							c2.1-1.2,2.8-3.9,1.6-6C316,258.6,314.5,257.8,312.9,257.8L312.9,257.8z"/>
					</g>
				</g>
			</g>
			<g>
				<g>
					<g>
						<path fill="#50B8E7" d="M236.6,182.5c0.6,0,1.1,0.1,1.6,0.4c1.6,0.9,2.1,2.9,1.2,4.5c-0.6,1.1-1.7,1.6-2.9,1.6
							c-0.6,0-1.1-0.1-1.6-0.4c-1.6-0.9-2.1-2.9-1.2-4.5C234.3,183.1,235.5,182.5,236.6,182.5 M236.6,181.4L236.6,181.4
							c-1.6,0-3,0.8-3.8,2.2c-0.6,1-0.7,2.2-0.4,3.3c0.3,1.1,1,2.1,2,2.7c0.7,0.4,1.4,0.6,2.2,0.6c1.6,0,3-0.8,3.8-2.2
							c1.2-2.1,0.5-4.8-1.6-6C238.1,181.6,237.4,181.4,236.6,181.4L236.6,181.4z"/>
					</g>
				</g>
			</g>
			<g>
				<g>
					<g>
						<path fill="#50B8E7" d="M333.4,238.4c0.6,0,1.1,0.1,1.6,0.4c1.6,0.9,2.1,2.9,1.2,4.5c-0.6,1.1-1.7,1.6-2.9,1.6
							c-0.6,0-1.1-0.1-1.6-0.4c-1.6-0.9-2.1-2.9-1.2-4.5C331.2,239,332.3,238.4,333.4,238.4 M333.4,237.3L333.4,237.3
							c-1.6,0-3,0.8-3.8,2.2c-0.6,1-0.7,2.2-0.4,3.3c0.3,1.1,1,2.1,2,2.7c0.7,0.4,1.4,0.6,2.2,0.6c1.6,0,3-0.8,3.8-2.2
							c1.2-2.1,0.5-4.8-1.6-6C334.9,237.5,334.2,237.3,333.4,237.3L333.4,237.3z"/>
					</g>
				</g>
			</g>
			<g>
				<g>
					<g>
						<path fill="#50B8E7" d="M229.1,210.5c1.8,0,3.3,1.5,3.3,3.3s-1.5,3.3-3.3,3.3c-1.8,0-3.3-1.5-3.3-3.3S227.3,210.5,229.1,210.5
							 M229.1,209.4c-2.4,0-4.4,2-4.4,4.4s2,4.4,4.4,4.4c2.4,0,4.4-2,4.4-4.4S231.5,209.4,229.1,209.4L229.1,209.4z"/>
					</g>
				</g>
			</g>
			<g>
				<g>
					<g>
						<path fill="#50B8E7" d="M340.9,210.5c1.8,0,3.3,1.5,3.3,3.3s-1.5,3.3-3.3,3.3c-1.8,0-3.3-1.5-3.3-3.3S339.1,210.5,340.9,210.5
							 M340.9,209.4c-2.4,0-4.4,2-4.4,4.4s2,4.4,4.4,4.4c2.4,0,4.4-2,4.4-4.4S343.3,209.4,340.9,209.4L340.9,209.4z"/>
					</g>
				</g>
			</g>
			<g>
				<g>
					<g>
						<path fill="#50B8E7" d="M236.6,238.4c1.1,0,2.2,0.6,2.9,1.6c0.9,1.6,0.4,3.6-1.2,4.5c-0.5,0.3-1.1,0.4-1.6,0.4
							c-1.1,0-2.2-0.6-2.9-1.6c-0.9-1.6-0.4-3.6,1.2-4.5C235.5,238.6,236,238.4,236.6,238.4 M236.6,237.3L236.6,237.3
							c-0.8,0-1.5,0.2-2.2,0.6c-1,0.6-1.7,1.5-2,2.7c-0.3,1.1-0.1,2.3,0.4,3.3c0.8,1.4,2.2,2.2,3.8,2.2c0.8,0,1.5-0.2,2.2-0.6
							c2.1-1.2,2.8-3.9,1.6-6C239.6,238.2,238.1,237.3,236.6,237.3L236.6,237.3z"/>
					</g>
				</g>
			</g>
			<g>
				<g>
					<g>
						<path fill="#FD9838" d="M333.4,182.5c1.1,0,2.2,0.6,2.9,1.6c0.9,1.6,0.4,3.6-1.2,4.5c-0.5,0.3-1.1,0.4-1.6,0.4
							c-1.1,0-2.2-0.6-2.9-1.6c-0.9-1.6-0.4-3.6,1.2-4.5C332.3,182.7,332.9,182.5,333.4,182.5 M333.4,180.3L333.4,180.3
							c-1,0-1.9,0.3-2.7,0.7c-1.3,0.7-2.2,1.9-2.6,3.3s-0.2,2.9,0.5,4.2c1,1.7,2.8,2.7,4.7,2.7c1,0,1.9-0.3,2.7-0.7
							c2.6-1.5,3.5-4.9,2-7.5C337.2,181.4,335.4,180.3,333.4,180.3L333.4,180.3z"/>
					</g>
				</g>
			</g>
			<g>
				<g>
					<g>
						<path fill="#50B8E7" d="M257.1,258.9c0.6,0,1.1,0.1,1.6,0.4c1.6,0.9,2.1,2.9,1.2,4.5c-0.6,1.1-1.7,1.6-2.9,1.6
							c-0.6,0-1.1-0.1-1.6-0.4c-1.6-0.9-2.1-2.9-1.2-4.5C254.8,259.5,255.9,258.9,257.1,258.9 M257.1,257.8L257.1,257.8
							c-1.6,0-3,0.8-3.8,2.2c-0.6,1-0.7,2.2-0.4,3.3c0.3,1.1,1,2.1,2,2.7c0.7,0.4,1.4,0.6,2.2,0.6c1.6,0,3-0.8,3.8-2.2
							c1.2-2.1,0.5-4.8-1.6-6C258.6,258,257.8,257.8,257.1,257.8L257.1,257.8z"/>
					</g>
				</g>
			</g>
			<g>
				<g>
					<g>
						<path fill="#50B8E7" d="M313,162c0.6,0,1.1,0.1,1.6,0.4c1.6,0.9,2.1,2.9,1.2,4.5c-0.6,1.1-1.7,1.6-2.9,1.6
							c-0.6,0-1.1-0.1-1.6-0.4c-1.6-0.9-2.1-2.9-1.2-4.5C310.7,162.6,311.8,162,313,162 M313,161L313,161c-1.6,0-3,0.8-3.8,2.2
							c-0.6,1-0.7,2.2-0.4,3.3c0.3,1.1,1,2.1,2,2.7c0.7,0.4,1.4,0.6,2.2,0.6c1.6,0,3-0.8,3.8-2.2c1.2-2.1,0.5-4.8-1.6-6
							C314.5,161.2,313.7,161,313,161L313,161z"/>
					</g>
				</g>
			</g>
		</g>
		<g>
			<g>
				<g>
					<g>
						<path fill="#50B8E7" d="M285,155.7c1.2,0,2.2,1,2.2,2.2c0,1.2-1,2.2-2.2,2.2s-2.2-1-2.2-2.2
							C282.8,156.6,283.8,155.7,285,155.7 M285,154.6c-1.8,0-3.3,1.5-3.3,3.3c0,1.8,1.5,3.3,3.3,3.3c1.8,0,3.3-1.5,3.3-3.3
							C288.3,156,286.8,154.6,285,154.6L285,154.6z"/>
					</g>
				</g>
			</g>
			<g>
				<g>
					<g>
						<path fill="#50B8E7" d="M257,163.1L257,163.1c0.8,0,1.5,0.4,1.9,1.1c0.6,1,0.2,2.4-0.8,3c-0.3,0.2-0.7,0.3-1.1,0.3
							c-0.8,0-1.5-0.4-1.9-1.1c-0.6-1-0.2-2.4,0.8-3C256.3,163.2,256.7,163.1,257,163.1 M257,162c-0.6,0-1.1,0.1-1.6,0.4
							c-1.6,0.9-2.1,2.9-1.2,4.5c0.6,1.1,1.7,1.6,2.9,1.6c0.6,0,1.1-0.1,1.6-0.4c1.6-0.9,2.1-2.9,1.2-4.5
							C259.3,162.6,258.2,162,257,162L257,162z"/>
					</g>
				</g>
			</g>
			<g>
				<g>
					<g>
						<path fill="#50B8E7" d="M312.9,260L312.9,260c0.8,0,1.5,0.4,1.9,1.1c0.6,1,0.2,2.4-0.8,3c-0.3,0.2-0.7,0.3-1.1,0.3
							c-0.8,0-1.5-0.4-1.9-1.1c-0.6-1-0.2-2.4,0.8-3C312.2,260.1,312.6,260,312.9,260 M312.9,258.9c-0.6,0-1.1,0.1-1.6,0.4
							c-1.6,0.9-2.1,2.9-1.2,4.5c0.6,1.1,1.7,1.6,2.9,1.6c0.6,0,1.1-0.1,1.6-0.4c1.6-0.9,2.1-2.9,1.2-4.5
							C315.2,259.5,314.1,258.9,312.9,258.9L312.9,258.9z"/>
					</g>
				</g>
			</g>
			<g>
				<g>
					<g>
						<path fill="#50B8E7" d="M236.6,183.6L236.6,183.6c0.4,0,0.8,0.1,1.1,0.3c1,0.6,1.4,1.9,0.8,3c-0.4,0.7-1.1,1.1-1.9,1.1
							c-0.4,0-0.8-0.1-1.1-0.3c-1-0.6-1.4-1.9-0.8-3C235.1,184,235.8,183.6,236.6,183.6 M236.6,182.5c-1.1,0-2.2,0.6-2.9,1.6
							c-0.9,1.6-0.4,3.6,1.2,4.5c0.5,0.3,1.1,0.4,1.6,0.4c1.1,0,2.2-0.6,2.9-1.6c0.9-1.6,0.4-3.6-1.2-4.5
							C237.7,182.7,237.1,182.5,236.6,182.5L236.6,182.5z"/>
					</g>
				</g>
			</g>
			<g>
				<g>
					<g>
						<path fill="#50B8E7" d="M333.4,239.5L333.4,239.5c0.4,0,0.8,0.1,1.1,0.3c1,0.6,1.4,1.9,0.8,3c-0.4,0.7-1.1,1.1-1.9,1.1
							c-0.4,0-0.8-0.1-1.1-0.3c-1-0.6-1.4-1.9-0.8-3C331.9,239.9,332.6,239.5,333.4,239.5 M333.4,238.4c-1.1,0-2.2,0.6-2.9,1.6
							c-0.9,1.6-0.4,3.6,1.2,4.5c0.5,0.3,1.1,0.4,1.6,0.4c1.1,0,2.2-0.6,2.9-1.6c0.9-1.6,0.4-3.6-1.2-4.5
							C334.5,238.6,334,238.4,333.4,238.4L333.4,238.4z"/>
					</g>
				</g>
			</g>
			<g>
				<g>
					<g>
						<path fill="#50B8E7" d="M229.1,211.6c1.2,0,2.2,1,2.2,2.2s-1,2.2-2.2,2.2c-1.2,0-2.2-1-2.2-2.2S227.9,211.6,229.1,211.6
							 M229.1,210.5c-1.8,0-3.3,1.5-3.3,3.3s1.5,3.3,3.3,3.3c1.8,0,3.3-1.5,3.3-3.3S230.9,210.5,229.1,210.5L229.1,210.5z"/>
					</g>
				</g>
			</g>
			<g>
				<g>
					<g>
						<path fill="#50B8E7" d="M340.9,211.6c1.2,0,2.2,1,2.2,2.2s-1,2.2-2.2,2.2c-1.2,0-2.2-1-2.2-2.2S339.7,211.6,340.9,211.6
							 M340.9,210.5c-1.8,0-3.3,1.5-3.3,3.3s1.5,3.3,3.3,3.3c1.8,0,3.3-1.5,3.3-3.3S342.7,210.5,340.9,210.5L340.9,210.5z"/>
					</g>
				</g>
			</g>
			<g>
				<g>
					<g>
						<path fill="#50B8E7" d="M236.6,239.5L236.6,239.5c0.8,0,1.5,0.4,1.9,1.1c0.6,1,0.2,2.4-0.8,3c-0.3,0.2-0.7,0.3-1.1,0.3
							c-0.8,0-1.5-0.4-1.9-1.1c-0.6-1-0.2-2.4,0.8-3C235.8,239.6,236.2,239.5,236.6,239.5 M236.6,238.4c-0.6,0-1.1,0.1-1.6,0.4
							c-1.6,0.9-2.1,2.9-1.2,4.5c0.6,1.1,1.7,1.6,2.9,1.6c0.6,0,1.1-0.1,1.6-0.4c1.6-0.9,2.1-2.9,1.2-4.5
							C238.8,239,237.7,238.4,236.6,238.4L236.6,238.4z"/>
					</g>
				</g>
			</g>
			<g>
				<g>
					<g opacity="0.25">
						<g>
							<g>
								<path fill="#FD9838" d="M333.4,179.2c2.3,0,4.5,1.2,5.7,3.3c1.8,3.1,0.7,7.2-2.4,9c-1,0.6-2.2,0.9-3.3,0.9
									c-2.3,0-4.5-1.2-5.7-3.3c-1.8-3.1-0.7-7.2,2.4-9C331.2,179.5,332.3,179.2,333.4,179.2 M333.4,178.1L333.4,178.1
									c-1.3,0-2.7,0.4-3.8,1c-1.8,1-3,2.7-3.6,4.7c-0.5,2-0.3,4,0.8,5.8c1.4,2.4,3.9,3.8,6.7,3.8c1.3,0,2.7-0.4,3.8-1
									c3.7-2.1,4.9-6.8,2.8-10.5C338.7,179.6,336.1,178.1,333.4,178.1L333.4,178.1z"/>
							</g>
						</g>
					</g>
					<g>
						<g>
							<path fill="#FFFFFF" d="M333.4,188.5c-1,0-1.9-0.5-2.4-1.4c-0.4-0.6-0.5-1.4-0.3-2.1c0.2-0.7,0.6-1.3,1.3-1.7
								c0.4-0.2,0.9-0.4,1.4-0.4c1,0,1.9,0.5,2.4,1.4c0.4,0.6,0.5,1.4,0.3,2.1c-0.2,0.7-0.6,1.3-1.3,1.7
								C334.4,188.4,333.9,188.5,333.4,188.5z"/>
						</g>
						<g>
							<path fill="#FD9838" d="M333.4,183.6L333.4,183.6c0.8,0,1.5,0.4,1.9,1.1c0.6,1,0.2,2.4-0.8,3c-0.3,0.2-0.7,0.3-1.1,0.3
								c-0.8,0-1.5-0.4-1.9-1.1c-0.6-1-0.2-2.4,0.8-3C332.7,183.7,333,183.6,333.4,183.6 M333.4,182.5c-0.6,0-1.1,0.1-1.6,0.4
								c-1.6,0.9-2.1,2.9-1.2,4.5c0.6,1.1,1.7,1.6,2.9,1.6c0.6,0,1.1-0.1,1.6-0.4c1.6-0.9,2.1-2.9,1.2-4.5
								C335.7,183.1,334.5,182.5,333.4,182.5L333.4,182.5z"/>
						</g>
					</g>
				</g>
			</g>
			<g>
				<g>
					<g>
						<path fill="#50B8E7" d="M257.1,260L257.1,260c0.4,0,0.8,0.1,1.1,0.3c1,0.6,1.4,1.9,0.8,3c-0.4,0.7-1.1,1.1-1.9,1.1
							c-0.4,0-0.8-0.1-1.1-0.3c-1-0.6-1.4-1.9-0.8-3C255.5,260.4,256.3,260,257.1,260 M257.1,258.9c-1.1,0-2.2,0.6-2.9,1.6
							c-0.9,1.6-0.4,3.6,1.2,4.5c0.5,0.3,1.1,0.4,1.6,0.4c1.1,0,2.2-0.6,2.9-1.6c0.9-1.6,0.4-3.6-1.2-4.5
							C258.2,259,257.6,258.9,257.1,258.9L257.1,258.9z"/>
					</g>
				</g>
			</g>
			<g>
				<g>
					<g>
						<path fill="#50B8E7" d="M313,163.1L313,163.1c0.4,0,0.8,0.1,1.1,0.3c1,0.6,1.4,1.9,0.8,3c-0.4,0.7-1.1,1.1-1.9,1.1
							c-0.4,0-0.8-0.1-1.1-0.3c-1-0.6-1.4-1.9-0.8-3C311.4,163.6,312.2,163.1,313,163.1 M313,162c-1.1,0-2.2,0.6-2.9,1.6
							c-0.9,1.6-0.4,3.6,1.2,4.5c0.5,0.3,1.1,0.4,1.6,0.4c1.1,0,2.2-0.6,2.9-1.6c0.9-1.6,0.4-3.6-1.2-4.5
							C314.1,162.2,313.5,162,313,162L313,162z"/>
					</g>
				</g>
			</g>
		</g>
		<g>
			<g>
				<g>
					<path fill="#50B8E7" d="M287.2,270.6c-1.1,0-2.2-0.4-3-1.2c-1.6-1.6-1.6-4.3,0-5.9l3.3-3.3c1.6-1.6,4.4-1.6,5.9,0
						c1.6,1.6,1.6,4.3,0,5.9l-3.3,3.3C289.4,270.1,288.3,270.6,287.2,270.6z M290.5,261.1c-0.5,0-1,0.2-1.4,0.6l-3.3,3.3
						c-0.8,0.8-0.8,2.1,0,2.8c0.8,0.8,2.1,0.8,2.8,0l3.3-3.3c0.8-0.8,0.8-2.1,0-2.8C291.5,261.3,291,261.1,290.5,261.1z"/>
				</g>
			</g>
			<g>
				<g>
					<path fill="#50B8E7" d="M278.4,279.3c-1.1,0-2.2-0.4-3-1.2c-1.6-1.6-1.6-4.3,0-5.9l3.3-3.3c1.6-1.6,4.4-1.6,5.9,0
						c1.6,1.6,1.6,4.3,0,5.9l-3.3,3.3C280.6,278.9,279.5,279.3,278.4,279.3z M281.7,269.8c-0.5,0-1,0.2-1.4,0.6l-3.3,3.3
						c-0.8,0.8-0.8,2.1,0,2.8c0.8,0.8,2.1,0.8,2.8,0l3.3-3.3c0.8-0.8,0.8-2.1,0-2.8C282.7,270,282.2,269.8,281.7,269.8z"/>
				</g>
			</g>
			<g>
				<g>
					<path fill="#50B8E7" d="M280.6,274c-0.3,0-0.6-0.1-0.8-0.3c-0.4-0.4-0.4-1.1,0-1.6l7.7-7.7c0.4-0.4,1.1-0.4,1.6,0
						c0.4,0.4,0.4,1.1,0,1.6l-7.7,7.7C281.2,273.9,280.9,274,280.6,274z"/>
				</g>
			</g>
		</g>
	</g>
	<g>
		<g>
			<path fill="#50B8E7" d="M139.2,205v17.5h17.5V205H139.2z M150.2,211.6l-4.2,4.2l-2.4-2l-2.2,2.2v-8.8h13.2v8.8L150.2,211.6z"/>
		</g>
		<g>
			<circle fill="#50B8E7" cx="145.2" cy="211" r="1.6"/>
		</g>
	</g>
	<g>
		<path fill="#50B8E7" d="M430.5,213l-2.2-2.2c-0.2-0.2-0.5-0.3-0.8-0.3h-2.8l1-2.5c0.3-0.7,0.2-1.4-0.2-2c-0.4-0.6-1.1-1-1.8-1H422
			c-0.4,0-0.8,0.2-1,0.6l-2.6,5.2c-0.2-0.2-0.5-0.3-0.8-0.3h-3.3c-0.6,0-1.1,0.5-1.1,1.1v9.9c0,0.6,0.5,1.1,1.1,1.1h3.3
			c0.6,0,1-0.4,1.1-1l1.7,0.9c0.2,0.1,0.3,0.1,0.5,0.1h6.6c0.3,0,0.6-0.1,0.8-0.3l1.1-1.1c0.2-0.2,0.3-0.4,0.3-0.6l1.1-6.6
			C430.8,213.6,430.7,213.2,430.5,213z M427.6,219.8l-0.5,0.5h-5.9l-1.4-0.7v-6.7l2.9-5.7h1l-1.6,4c-0.1,0.3-0.1,0.7,0.1,1
			s0.5,0.5,0.9,0.5h3.9l1.5,1.5L427.6,219.8z"/>
	</g>
</g>
</svg>
